<mxfile host="app.diagrams.net" modified="2020-07-16T01:10:33.366Z" agent="5.0 (Windows NT 10.0; Win64; x64) AppleWebKit/537.36 (KHTML, like Gecko) Chrome/83.0.4103.116 Safari/537.36" etag="wjg1QlYmTe6HgYVPoTKH" version="13.3.9" type="github" pages="2">
  <diagram id="7tY7tt5bNJeINY6fviGM" name="Page-1">
    <mxGraphModel dx="1003" dy="-165" grid="1" gridSize="10" guides="1" tooltips="1" connect="1" arrows="1" fold="1" page="1" pageScale="1" pageWidth="827" pageHeight="1169" math="0" shadow="0">
      <root>
        <mxCell id="0" />
        <mxCell id="1" parent="0" />
        <mxCell id="1mK0NFg7NYRcFwX0BZbW-2" value="" style="shape=ellipse;fillColor=#dae8fc;strokeColor=#000000;html=1;opacity=60;" vertex="1" parent="1">
          <mxGeometry x="1259.92" y="1270" width="30" height="30" as="geometry" />
        </mxCell>
        <mxCell id="1mK0NFg7NYRcFwX0BZbW-3" value="" style="shape=ellipse;fillColor=#dae8fc;strokeColor=#000000;html=1;opacity=60;" vertex="1" parent="1">
          <mxGeometry x="1219.92" y="1330" width="30" height="30" as="geometry" />
        </mxCell>
        <mxCell id="1mK0NFg7NYRcFwX0BZbW-4" value="" style="shape=ellipse;fillColor=#dae8fc;strokeColor=#000000;html=1;opacity=60;" vertex="1" parent="1">
          <mxGeometry x="1299.92" y="1270" width="30" height="30" as="geometry" />
        </mxCell>
        <mxCell id="1mK0NFg7NYRcFwX0BZbW-5" value="" style="shape=ellipse;fillColor=#dae8fc;strokeColor=#000000;html=1;opacity=60;" vertex="1" parent="1">
          <mxGeometry x="1299.92" y="1320" width="30" height="30" as="geometry" />
        </mxCell>
        <mxCell id="1mK0NFg7NYRcFwX0BZbW-6" value="" style="shape=ellipse;fillColor=#dae8fc;strokeColor=#000000;html=1;opacity=60;" vertex="1" parent="1">
          <mxGeometry x="1379.92" y="1330" width="30" height="30" as="geometry" />
        </mxCell>
        <mxCell id="1mK0NFg7NYRcFwX0BZbW-7" value="" style="shape=ellipse;fillColor=#dae8fc;strokeColor=#000000;html=1;opacity=60;" vertex="1" parent="1">
          <mxGeometry x="1469.92" y="1340" width="30" height="30" as="geometry" />
        </mxCell>
        <mxCell id="1mK0NFg7NYRcFwX0BZbW-8" value="" style="endArrow=none;html=1;strokeColor=#99FF99;strokeWidth=5;fontSize=56;fillColor=#d5e8d4;opacity=60;targetPerimeterSpacing=-4;startSize=6;sourcePerimeterSpacing=-3;" edge="1" parent="1" source="1mK0NFg7NYRcFwX0BZbW-63" target="1mK0NFg7NYRcFwX0BZbW-6">
          <mxGeometry width="50" height="50" relative="1" as="geometry">
            <mxPoint x="1259.8748571428573" y="1413" as="sourcePoint" />
            <mxPoint x="1298.864714285714" y="1366" as="targetPoint" />
          </mxGeometry>
        </mxCell>
        <mxCell id="1mK0NFg7NYRcFwX0BZbW-9" value="" style="shape=ellipse;fillColor=#dae8fc;strokeColor=#000000;html=1;opacity=60;" vertex="1" parent="1">
          <mxGeometry x="1019.9200000000001" y="1280" width="30" height="30" as="geometry" />
        </mxCell>
        <mxCell id="1mK0NFg7NYRcFwX0BZbW-10" value="" style="shape=ellipse;fillColor=#dae8fc;strokeColor=#000000;html=1;opacity=60;" vertex="1" parent="1">
          <mxGeometry x="1139.92" y="1240" width="30" height="30" as="geometry" />
        </mxCell>
        <mxCell id="1mK0NFg7NYRcFwX0BZbW-11" value="" style="shape=ellipse;fillColor=#dae8fc;strokeColor=#000000;html=1;opacity=60;" vertex="1" parent="1">
          <mxGeometry x="1129.92" y="1340" width="30" height="30" as="geometry" />
        </mxCell>
        <mxCell id="1mK0NFg7NYRcFwX0BZbW-12" value="" style="shape=ellipse;fillColor=#dae8fc;strokeColor=#000000;html=1;opacity=60;" vertex="1" parent="1">
          <mxGeometry x="1299" y="1210" width="30" height="30" as="geometry" />
        </mxCell>
        <mxCell id="1mK0NFg7NYRcFwX0BZbW-13" value="" style="shape=ellipse;fillColor=#dae8fc;strokeColor=#000000;html=1;opacity=60;" vertex="1" parent="1">
          <mxGeometry x="1339.92" y="1270" width="30" height="30" as="geometry" />
        </mxCell>
        <mxCell id="1mK0NFg7NYRcFwX0BZbW-14" value="" style="shape=ellipse;fillColor=#dae8fc;strokeColor=#000000;html=1;opacity=60;" vertex="1" parent="1">
          <mxGeometry x="1469.92" y="1240" width="30" height="30" as="geometry" />
        </mxCell>
        <mxCell id="1mK0NFg7NYRcFwX0BZbW-15" value="" style="shape=ellipse;fillColor=#dae8fc;strokeColor=#000000;html=1;opacity=60;" vertex="1" parent="1">
          <mxGeometry x="1569.92" y="1280" width="30" height="30" as="geometry" />
        </mxCell>
        <mxCell id="1mK0NFg7NYRcFwX0BZbW-16" value="" style="shape=ellipse;fillColor=#dae8fc;strokeColor=#000000;html=1;opacity=60;" vertex="1" parent="1">
          <mxGeometry x="1159.92" y="1530" width="30" height="30" as="geometry" />
        </mxCell>
        <mxCell id="1mK0NFg7NYRcFwX0BZbW-17" value="" style="shape=ellipse;fillColor=#dae8fc;strokeColor=#000000;html=1;opacity=60;" vertex="1" parent="1">
          <mxGeometry x="1419.92" y="1530" width="30" height="30" as="geometry" />
        </mxCell>
        <mxCell id="1mK0NFg7NYRcFwX0BZbW-18" value="" style="shape=ellipse;fillColor=#dae8fc;strokeColor=#000000;html=1;opacity=60;" vertex="1" parent="1">
          <mxGeometry x="1169.92" y="1620" width="30" height="30" as="geometry" />
        </mxCell>
        <mxCell id="1mK0NFg7NYRcFwX0BZbW-19" value="" style="shape=ellipse;fillColor=#dae8fc;strokeColor=#000000;html=1;opacity=60;" vertex="1" parent="1">
          <mxGeometry x="1419.92" y="1630" width="30" height="30" as="geometry" />
        </mxCell>
        <mxCell id="1mK0NFg7NYRcFwX0BZbW-20" value="" style="shape=ellipse;fillColor=#dae8fc;strokeColor=#000000;html=1;opacity=60;" vertex="1" parent="1">
          <mxGeometry x="1219.92" y="1600" width="30" height="30" as="geometry" />
        </mxCell>
        <mxCell id="1mK0NFg7NYRcFwX0BZbW-21" value="" style="shape=ellipse;fillColor=#dae8fc;strokeColor=#000000;html=1;opacity=60;" vertex="1" parent="1">
          <mxGeometry x="1299" y="1600" width="30" height="30" as="geometry" />
        </mxCell>
        <mxCell id="1mK0NFg7NYRcFwX0BZbW-22" value="" style="shape=ellipse;fillColor=#dae8fc;strokeColor=#CCE5FF;html=1;opacity=60;" vertex="1" parent="1">
          <mxGeometry x="1369.92" y="1600" width="30" height="30" as="geometry" />
        </mxCell>
        <mxCell id="1mK0NFg7NYRcFwX0BZbW-23" value="" style="shape=ellipse;fillColor=#dae8fc;strokeColor=#000000;html=1;opacity=60;" vertex="1" parent="1">
          <mxGeometry x="1329" y="1670" width="30" height="30" as="geometry" />
        </mxCell>
        <mxCell id="1mK0NFg7NYRcFwX0BZbW-24" value="" style="shape=ellipse;fillColor=#dae8fc;strokeColor=#000000;html=1;opacity=60;" vertex="1" parent="1">
          <mxGeometry x="1259.92" y="1670" width="30" height="30" as="geometry" />
        </mxCell>
        <mxCell id="1mK0NFg7NYRcFwX0BZbW-25" value="" style="endArrow=none;html=1;fontSize=56;exitX=0.967;exitY=0.246;exitDx=0;exitDy=0;strokeWidth=5;fillColor=#dae8fc;strokeColor=#CCE5FF;exitPerimeter=0;opacity=60;" edge="1" parent="1" source="1mK0NFg7NYRcFwX0BZbW-9" target="1mK0NFg7NYRcFwX0BZbW-10">
          <mxGeometry width="50" height="50" relative="1" as="geometry">
            <mxPoint x="1029.92" y="1300" as="sourcePoint" />
            <mxPoint x="1079.92" y="1250" as="targetPoint" />
          </mxGeometry>
        </mxCell>
        <mxCell id="1mK0NFg7NYRcFwX0BZbW-26" value="" style="endArrow=none;html=1;fontSize=56;exitX=1;exitY=0.5;exitDx=0;exitDy=0;strokeWidth=5;fillColor=#dae8fc;strokeColor=#CCE5FF;opacity=60;" edge="1" parent="1" source="1mK0NFg7NYRcFwX0BZbW-9" target="1mK0NFg7NYRcFwX0BZbW-11">
          <mxGeometry width="50" height="50" relative="1" as="geometry">
            <mxPoint x="1058.93" y="1297.38" as="sourcePoint" />
            <mxPoint x="1149.92" y="1269.582507783753" as="targetPoint" />
          </mxGeometry>
        </mxCell>
        <mxCell id="1mK0NFg7NYRcFwX0BZbW-27" value="" style="endArrow=none;html=1;fontSize=56;strokeWidth=5;fillColor=#dae8fc;strokeColor=#CCE5FF;opacity=60;" edge="1" parent="1" source="1mK0NFg7NYRcFwX0BZbW-10" target="1mK0NFg7NYRcFwX0BZbW-2">
          <mxGeometry width="50" height="50" relative="1" as="geometry">
            <mxPoint x="1058.93" y="1297.38" as="sourcePoint" />
            <mxPoint x="1149.92" y="1269.582507783753" as="targetPoint" />
          </mxGeometry>
        </mxCell>
        <mxCell id="1mK0NFg7NYRcFwX0BZbW-28" value="" style="endArrow=none;html=1;fontSize=56;strokeWidth=5;fillColor=#dae8fc;strokeColor=#CCE5FF;opacity=60;" edge="1" parent="1" source="1mK0NFg7NYRcFwX0BZbW-11" target="1mK0NFg7NYRcFwX0BZbW-3">
          <mxGeometry width="50" height="50" relative="1" as="geometry">
            <mxPoint x="1068.93" y="1307.38" as="sourcePoint" />
            <mxPoint x="1159.92" y="1279.582507783753" as="targetPoint" />
          </mxGeometry>
        </mxCell>
        <mxCell id="1mK0NFg7NYRcFwX0BZbW-29" value="" style="endArrow=none;html=1;fontSize=56;strokeWidth=5;fillColor=#dae8fc;strokeColor=#CCE5FF;opacity=60;targetPerimeterSpacing=-3;sourcePerimeterSpacing=-3;" edge="1" parent="1" source="1mK0NFg7NYRcFwX0BZbW-3" target="1mK0NFg7NYRcFwX0BZbW-2">
          <mxGeometry width="50" height="50" relative="1" as="geometry">
            <mxPoint x="1078.93" y="1317.38" as="sourcePoint" />
            <mxPoint x="1169.92" y="1289.582507783753" as="targetPoint" />
          </mxGeometry>
        </mxCell>
        <mxCell id="1mK0NFg7NYRcFwX0BZbW-30" value="" style="endArrow=none;html=1;fontSize=56;strokeWidth=5;fillColor=#dae8fc;strokeColor=#CCE5FF;opacity=60;targetPerimeterSpacing=-3;sourcePerimeterSpacing=-2;" edge="1" parent="1" source="1mK0NFg7NYRcFwX0BZbW-2" target="1mK0NFg7NYRcFwX0BZbW-12">
          <mxGeometry width="50" height="50" relative="1" as="geometry">
            <mxPoint x="1088.93" y="1327.38" as="sourcePoint" />
            <mxPoint x="1179.92" y="1299.582507783753" as="targetPoint" />
          </mxGeometry>
        </mxCell>
        <mxCell id="1mK0NFg7NYRcFwX0BZbW-31" value="" style="endArrow=none;html=1;fontSize=56;strokeWidth=5;fillColor=#dae8fc;strokeColor=#CCE5FF;opacity=60;targetPerimeterSpacing=-3;sourcePerimeterSpacing=-3;" edge="1" parent="1" source="1mK0NFg7NYRcFwX0BZbW-13" target="1mK0NFg7NYRcFwX0BZbW-12">
          <mxGeometry width="50" height="50" relative="1" as="geometry">
            <mxPoint x="1294.69" y="1280" as="sourcePoint" />
            <mxPoint x="1314.23" y="1250" as="targetPoint" />
          </mxGeometry>
        </mxCell>
        <mxCell id="1mK0NFg7NYRcFwX0BZbW-32" value="" style="endArrow=none;html=1;fontSize=56;strokeWidth=5;fillColor=#dae8fc;strokeColor=#CCE5FF;opacity=60;" edge="1" parent="1" source="1mK0NFg7NYRcFwX0BZbW-3" target="1mK0NFg7NYRcFwX0BZbW-5">
          <mxGeometry width="50" height="50" relative="1" as="geometry">
            <mxPoint x="1304.69" y="1290" as="sourcePoint" />
            <mxPoint x="1324.23" y="1260" as="targetPoint" />
          </mxGeometry>
        </mxCell>
        <mxCell id="1mK0NFg7NYRcFwX0BZbW-33" value="" style="endArrow=none;html=1;fontSize=56;strokeWidth=5;fillColor=#dae8fc;strokeColor=#CCE5FF;opacity=60;" edge="1" parent="1" source="1mK0NFg7NYRcFwX0BZbW-4" target="1mK0NFg7NYRcFwX0BZbW-13">
          <mxGeometry width="50" height="50" relative="1" as="geometry">
            <mxPoint x="1314.69" y="1300" as="sourcePoint" />
            <mxPoint x="1334.23" y="1270" as="targetPoint" />
          </mxGeometry>
        </mxCell>
        <mxCell id="1mK0NFg7NYRcFwX0BZbW-34" value="" style="endArrow=none;html=1;fontSize=56;strokeWidth=5;fillColor=#dae8fc;strokeColor=#CCE5FF;opacity=60;" edge="1" parent="1" source="1mK0NFg7NYRcFwX0BZbW-2" target="1mK0NFg7NYRcFwX0BZbW-4">
          <mxGeometry width="50" height="50" relative="1" as="geometry">
            <mxPoint x="1324.69" y="1310" as="sourcePoint" />
            <mxPoint x="1309.92" y="1280" as="targetPoint" />
          </mxGeometry>
        </mxCell>
        <mxCell id="1mK0NFg7NYRcFwX0BZbW-35" value="" style="endArrow=none;html=1;fontSize=56;strokeWidth=5;fillColor=#dae8fc;strokeColor=#CCE5FF;opacity=60;" edge="1" parent="1" source="1mK0NFg7NYRcFwX0BZbW-5" target="1mK0NFg7NYRcFwX0BZbW-6">
          <mxGeometry width="50" height="50" relative="1" as="geometry">
            <mxPoint x="1334.69" y="1320" as="sourcePoint" />
            <mxPoint x="1354.23" y="1290" as="targetPoint" />
          </mxGeometry>
        </mxCell>
        <mxCell id="1mK0NFg7NYRcFwX0BZbW-36" value="" style="endArrow=none;html=1;fontSize=56;strokeWidth=5;fillColor=#dae8fc;strokeColor=#CCE5FF;opacity=60;" edge="1" parent="1" source="1mK0NFg7NYRcFwX0BZbW-13" target="1mK0NFg7NYRcFwX0BZbW-14">
          <mxGeometry width="50" height="50" relative="1" as="geometry">
            <mxPoint x="1344.69" y="1330" as="sourcePoint" />
            <mxPoint x="1364.23" y="1300" as="targetPoint" />
          </mxGeometry>
        </mxCell>
        <mxCell id="1mK0NFg7NYRcFwX0BZbW-37" value="" style="endArrow=none;html=1;fontSize=56;strokeWidth=5;fillColor=#dae8fc;strokeColor=#CCE5FF;opacity=60;targetPerimeterSpacing=-1;sourcePerimeterSpacing=-1;" edge="1" parent="1" source="1mK0NFg7NYRcFwX0BZbW-14" target="1mK0NFg7NYRcFwX0BZbW-15">
          <mxGeometry width="50" height="50" relative="1" as="geometry">
            <mxPoint x="1354.69" y="1340" as="sourcePoint" />
            <mxPoint x="1374.23" y="1310" as="targetPoint" />
          </mxGeometry>
        </mxCell>
        <mxCell id="1mK0NFg7NYRcFwX0BZbW-38" value="" style="endArrow=none;html=1;fontSize=56;strokeWidth=5;fillColor=#dae8fc;strokeColor=#CCE5FF;opacity=60;targetPerimeterSpacing=-2;sourcePerimeterSpacing=-2;" edge="1" parent="1" source="1mK0NFg7NYRcFwX0BZbW-7" target="1mK0NFg7NYRcFwX0BZbW-15">
          <mxGeometry width="50" height="50" relative="1" as="geometry">
            <mxPoint x="1364.69" y="1350" as="sourcePoint" />
            <mxPoint x="1384.23" y="1320" as="targetPoint" />
          </mxGeometry>
        </mxCell>
        <mxCell id="1mK0NFg7NYRcFwX0BZbW-39" value="" style="endArrow=none;html=1;fontSize=56;strokeWidth=5;fillColor=#dae8fc;strokeColor=#CCE5FF;opacity=60;" edge="1" parent="1" source="1mK0NFg7NYRcFwX0BZbW-6" target="1mK0NFg7NYRcFwX0BZbW-7">
          <mxGeometry width="50" height="50" relative="1" as="geometry">
            <mxPoint x="1374.69" y="1360" as="sourcePoint" />
            <mxPoint x="1394.23" y="1330" as="targetPoint" />
          </mxGeometry>
        </mxCell>
        <mxCell id="1mK0NFg7NYRcFwX0BZbW-40" value="" style="endArrow=none;html=1;fontSize=56;strokeWidth=5;fillColor=#dae8fc;strokeColor=#CCE5FF;opacity=60;sourcePerimeterSpacing=-3;targetPerimeterSpacing=-3;" edge="1" parent="1" source="1mK0NFg7NYRcFwX0BZbW-6" target="1mK0NFg7NYRcFwX0BZbW-13">
          <mxGeometry width="50" height="50" relative="1" as="geometry">
            <mxPoint x="1384.69" y="1370" as="sourcePoint" />
            <mxPoint x="1404.23" y="1340" as="targetPoint" />
          </mxGeometry>
        </mxCell>
        <mxCell id="1mK0NFg7NYRcFwX0BZbW-41" value="" style="endArrow=none;html=1;fontSize=56;strokeWidth=5;fillColor=#dae8fc;strokeColor=#CCE5FF;opacity=60;" edge="1" parent="1" source="1mK0NFg7NYRcFwX0BZbW-5" target="1mK0NFg7NYRcFwX0BZbW-21">
          <mxGeometry width="50" height="50" relative="1" as="geometry">
            <mxPoint x="1394.69" y="1380" as="sourcePoint" />
            <mxPoint x="1414.23" y="1350" as="targetPoint" />
          </mxGeometry>
        </mxCell>
        <mxCell id="1mK0NFg7NYRcFwX0BZbW-42" value="" style="endArrow=none;html=1;fontSize=56;strokeWidth=5;fillColor=#dae8fc;strokeColor=#CCE5FF;opacity=60;" edge="1" parent="1" source="1mK0NFg7NYRcFwX0BZbW-7" target="1mK0NFg7NYRcFwX0BZbW-17">
          <mxGeometry width="50" height="50" relative="1" as="geometry">
            <mxPoint x="1404.69" y="1390" as="sourcePoint" />
            <mxPoint x="1424.23" y="1360" as="targetPoint" />
          </mxGeometry>
        </mxCell>
        <mxCell id="1mK0NFg7NYRcFwX0BZbW-43" value="" style="endArrow=none;html=1;fontSize=56;strokeWidth=5;fillColor=#dae8fc;strokeColor=#CCE5FF;opacity=60;" edge="1" parent="1" source="1mK0NFg7NYRcFwX0BZbW-16" target="1mK0NFg7NYRcFwX0BZbW-11">
          <mxGeometry width="50" height="50" relative="1" as="geometry">
            <mxPoint x="1414.69" y="1400" as="sourcePoint" />
            <mxPoint x="1434.23" y="1370" as="targetPoint" />
          </mxGeometry>
        </mxCell>
        <mxCell id="1mK0NFg7NYRcFwX0BZbW-44" value="" style="endArrow=none;html=1;fontSize=56;strokeWidth=5;fillColor=#dae8fc;strokeColor=#CCE5FF;opacity=60;" edge="1" parent="1" source="1mK0NFg7NYRcFwX0BZbW-19" target="1mK0NFg7NYRcFwX0BZbW-17">
          <mxGeometry width="50" height="50" relative="1" as="geometry">
            <mxPoint x="1424.69" y="1410" as="sourcePoint" />
            <mxPoint x="1444.23" y="1380" as="targetPoint" />
          </mxGeometry>
        </mxCell>
        <mxCell id="1mK0NFg7NYRcFwX0BZbW-45" value="" style="endArrow=none;html=1;fontSize=56;strokeWidth=5;fillColor=#dae8fc;strokeColor=#CCE5FF;opacity=60;" edge="1" parent="1" source="1mK0NFg7NYRcFwX0BZbW-16" target="1mK0NFg7NYRcFwX0BZbW-18">
          <mxGeometry width="50" height="50" relative="1" as="geometry">
            <mxPoint x="1434.69" y="1420" as="sourcePoint" />
            <mxPoint x="1454.23" y="1390" as="targetPoint" />
          </mxGeometry>
        </mxCell>
        <mxCell id="1mK0NFg7NYRcFwX0BZbW-46" value="" style="endArrow=none;html=1;fontSize=56;strokeWidth=5;fillColor=#dae8fc;strokeColor=#CCE5FF;opacity=60;targetPerimeterSpacing=-2;sourcePerimeterSpacing=-2;" edge="1" parent="1" source="1mK0NFg7NYRcFwX0BZbW-19" target="1mK0NFg7NYRcFwX0BZbW-22">
          <mxGeometry width="50" height="50" relative="1" as="geometry">
            <mxPoint x="1444.69" y="1430" as="sourcePoint" />
            <mxPoint x="1464.23" y="1400" as="targetPoint" />
          </mxGeometry>
        </mxCell>
        <mxCell id="1mK0NFg7NYRcFwX0BZbW-47" value="" style="endArrow=none;html=1;fontSize=56;strokeWidth=5;fillColor=#dae8fc;strokeColor=#CCE5FF;opacity=60;" edge="1" parent="1" source="1mK0NFg7NYRcFwX0BZbW-22" target="1mK0NFg7NYRcFwX0BZbW-21">
          <mxGeometry width="50" height="50" relative="1" as="geometry">
            <mxPoint x="1454.69" y="1440" as="sourcePoint" />
            <mxPoint x="1474.23" y="1410" as="targetPoint" />
          </mxGeometry>
        </mxCell>
        <mxCell id="1mK0NFg7NYRcFwX0BZbW-48" value="" style="endArrow=none;html=1;fontSize=56;strokeWidth=5;fillColor=#dae8fc;strokeColor=#CCE5FF;opacity=60;" edge="1" parent="1" source="1mK0NFg7NYRcFwX0BZbW-21" target="1mK0NFg7NYRcFwX0BZbW-20">
          <mxGeometry width="50" height="50" relative="1" as="geometry">
            <mxPoint x="1464.69" y="1450" as="sourcePoint" />
            <mxPoint x="1484.23" y="1420" as="targetPoint" />
          </mxGeometry>
        </mxCell>
        <mxCell id="1mK0NFg7NYRcFwX0BZbW-49" value="" style="endArrow=none;html=1;fontSize=56;strokeWidth=5;fillColor=#dae8fc;strokeColor=#CCE5FF;opacity=60;" edge="1" parent="1" source="1mK0NFg7NYRcFwX0BZbW-23" target="1mK0NFg7NYRcFwX0BZbW-19">
          <mxGeometry width="50" height="50" relative="1" as="geometry">
            <mxPoint x="1474.69" y="1460" as="sourcePoint" />
            <mxPoint x="1494.23" y="1430" as="targetPoint" />
          </mxGeometry>
        </mxCell>
        <mxCell id="1mK0NFg7NYRcFwX0BZbW-50" value="" style="endArrow=none;html=1;fontSize=56;strokeWidth=5;fillColor=#dae8fc;strokeColor=#CCE5FF;opacity=60;" edge="1" parent="1" source="1mK0NFg7NYRcFwX0BZbW-18" target="1mK0NFg7NYRcFwX0BZbW-20">
          <mxGeometry width="50" height="50" relative="1" as="geometry">
            <mxPoint x="1484.69" y="1470" as="sourcePoint" />
            <mxPoint x="1504.23" y="1440" as="targetPoint" />
          </mxGeometry>
        </mxCell>
        <mxCell id="1mK0NFg7NYRcFwX0BZbW-51" value="" style="endArrow=none;html=1;fontSize=56;strokeWidth=5;fillColor=#dae8fc;strokeColor=#CCE5FF;opacity=60;" edge="1" parent="1" source="1mK0NFg7NYRcFwX0BZbW-24" target="1mK0NFg7NYRcFwX0BZbW-23">
          <mxGeometry width="50" height="50" relative="1" as="geometry">
            <mxPoint x="1494.69" y="1480" as="sourcePoint" />
            <mxPoint x="1514.23" y="1450" as="targetPoint" />
          </mxGeometry>
        </mxCell>
        <mxCell id="1mK0NFg7NYRcFwX0BZbW-52" value="" style="endArrow=none;html=1;fontSize=56;strokeWidth=5;fillColor=#dae8fc;strokeColor=#CCE5FF;opacity=60;targetPerimeterSpacing=-4;sourcePerimeterSpacing=-2;" edge="1" parent="1" source="1mK0NFg7NYRcFwX0BZbW-18" target="1mK0NFg7NYRcFwX0BZbW-24">
          <mxGeometry width="50" height="50" relative="1" as="geometry">
            <mxPoint x="1504.69" y="1490" as="sourcePoint" />
            <mxPoint x="1524.23" y="1460" as="targetPoint" />
          </mxGeometry>
        </mxCell>
        <mxCell id="1mK0NFg7NYRcFwX0BZbW-53" value="" style="shape=ellipse;fillColor=#3399FF;strokeColor=#000000;html=1;opacity=90;" vertex="1" parent="1">
          <mxGeometry x="932.9900000000001" y="1340" width="30" height="30" as="geometry" />
        </mxCell>
        <mxCell id="1mK0NFg7NYRcFwX0BZbW-54" value="" style="shape=ellipse;fillColor=#3399FF;strokeColor=#000000;html=1;opacity=90;" vertex="1" parent="1">
          <mxGeometry x="1052.9900000000002" y="1300" width="30" height="30" as="geometry" />
        </mxCell>
        <mxCell id="1mK0NFg7NYRcFwX0BZbW-55" value="" style="shape=ellipse;fillColor=#3399FF;strokeColor=#000000;html=1;opacity=90;" vertex="1" parent="1">
          <mxGeometry x="1052.9900000000002" y="1400" width="30" height="30" as="geometry" />
        </mxCell>
        <mxCell id="1mK0NFg7NYRcFwX0BZbW-56" value="" style="shape=ellipse;fillColor=#3399FF;strokeColor=#000000;html=1;opacity=90;" vertex="1" parent="1">
          <mxGeometry x="1138.46" y="1400" width="30" height="30" as="geometry" />
        </mxCell>
        <mxCell id="1mK0NFg7NYRcFwX0BZbW-57" value="" style="shape=ellipse;fillColor=#3399FF;strokeColor=#000000;html=1;opacity=90;" vertex="1" parent="1">
          <mxGeometry x="1182.9900000000002" y="1330" width="30" height="30" as="geometry" />
        </mxCell>
        <mxCell id="1mK0NFg7NYRcFwX0BZbW-58" value="" style="shape=ellipse;fillColor=#3399FF;strokeColor=#000000;html=1;opacity=90;" vertex="1" parent="1">
          <mxGeometry x="1233.33" y="1270" width="30" height="30" as="geometry" />
        </mxCell>
        <mxCell id="1mK0NFg7NYRcFwX0BZbW-59" value="" style="shape=ellipse;fillColor=#3399FF;strokeColor=#000000;html=1;opacity=90;" vertex="1" parent="1">
          <mxGeometry x="1233.33" y="1330" width="30" height="30" as="geometry" />
        </mxCell>
        <mxCell id="1mK0NFg7NYRcFwX0BZbW-60" value="" style="shape=ellipse;fillColor=#3399FF;strokeColor=#000000;html=1;opacity=90;" vertex="1" parent="1">
          <mxGeometry x="1233.33" y="1380" width="30" height="30" as="geometry" />
        </mxCell>
        <mxCell id="1mK0NFg7NYRcFwX0BZbW-61" value="" style="shape=ellipse;fillColor=#3399FF;strokeColor=#000000;html=1;opacity=90;" vertex="1" parent="1">
          <mxGeometry x="1282.9899999999998" y="1330" width="30" height="30" as="geometry" />
        </mxCell>
        <mxCell id="1mK0NFg7NYRcFwX0BZbW-62" value="" style="shape=ellipse;fillColor=#3399FF;strokeColor=#000000;html=1;opacity=90;" vertex="1" parent="1">
          <mxGeometry x="1522.9899999999998" y="1340" width="30" height="30" as="geometry" />
        </mxCell>
        <mxCell id="1mK0NFg7NYRcFwX0BZbW-63" value="" style="shape=ellipse;fillColor=#3399FF;strokeColor=#000000;html=1;opacity=90;" vertex="1" parent="1">
          <mxGeometry x="1322.9899999999998" y="1400" width="30" height="30" as="geometry" />
        </mxCell>
        <mxCell id="1mK0NFg7NYRcFwX0BZbW-64" value="" style="shape=ellipse;fillColor=#66B2FF;strokeColor=#6c8ebf;html=1;opacity=60;" vertex="1" parent="1">
          <mxGeometry x="1112.9900000000002" y="1660" width="30" height="30" as="geometry" />
        </mxCell>
        <mxCell id="1mK0NFg7NYRcFwX0BZbW-65" value="" style="endArrow=none;html=1;fontSize=56;strokeWidth=5;fillColor=#dae8fc;strokeColor=#6c8ebf;opacity=60;" edge="1" parent="1" source="1mK0NFg7NYRcFwX0BZbW-53" target="1mK0NFg7NYRcFwX0BZbW-54">
          <mxGeometry width="50" height="50" relative="1" as="geometry">
            <mxPoint x="502.9899999999999" y="1351" as="sourcePoint" />
            <mxPoint x="572.9899999999999" y="1379" as="targetPoint" />
          </mxGeometry>
        </mxCell>
        <mxCell id="1mK0NFg7NYRcFwX0BZbW-66" value="" style="endArrow=none;html=1;fontSize=56;strokeWidth=5;fillColor=#dae8fc;strokeColor=#6c8ebf;opacity=60;" edge="1" parent="1" source="1mK0NFg7NYRcFwX0BZbW-53" target="1mK0NFg7NYRcFwX0BZbW-55">
          <mxGeometry width="50" height="50" relative="1" as="geometry">
            <mxPoint x="512.9899999999999" y="1361" as="sourcePoint" />
            <mxPoint x="582.9899999999999" y="1389" as="targetPoint" />
          </mxGeometry>
        </mxCell>
        <mxCell id="1mK0NFg7NYRcFwX0BZbW-67" value="" style="endArrow=none;html=1;fontSize=56;strokeWidth=5;fillColor=#dae8fc;strokeColor=#6c8ebf;opacity=60;" edge="1" parent="1" source="1mK0NFg7NYRcFwX0BZbW-55" target="1mK0NFg7NYRcFwX0BZbW-56">
          <mxGeometry width="50" height="50" relative="1" as="geometry">
            <mxPoint x="972.9900000000002" y="1372.5" as="sourcePoint" />
            <mxPoint x="1062.9900000000002" y="1417.5" as="targetPoint" />
          </mxGeometry>
        </mxCell>
        <mxCell id="1mK0NFg7NYRcFwX0BZbW-68" value="" style="endArrow=none;html=1;fontSize=56;strokeWidth=5;fillColor=#dae8fc;strokeColor=#6c8ebf;entryX=0;entryY=0.5;entryDx=0;entryDy=0;opacity=60;" edge="1" parent="1" source="1mK0NFg7NYRcFwX0BZbW-54" target="1mK0NFg7NYRcFwX0BZbW-57">
          <mxGeometry width="50" height="50" relative="1" as="geometry">
            <mxPoint x="982.9900000000002" y="1382.5" as="sourcePoint" />
            <mxPoint x="1072.9900000000002" y="1427.5" as="targetPoint" />
          </mxGeometry>
        </mxCell>
        <mxCell id="1mK0NFg7NYRcFwX0BZbW-69" value="" style="endArrow=none;html=1;fontSize=56;strokeWidth=5;fillColor=#dae8fc;strokeColor=#6c8ebf;opacity=60;sourcePerimeterSpacing=-3;targetPerimeterSpacing=-2;" edge="1" parent="1" source="1mK0NFg7NYRcFwX0BZbW-57" target="1mK0NFg7NYRcFwX0BZbW-56">
          <mxGeometry width="50" height="50" relative="1" as="geometry">
            <mxPoint x="992.9900000000002" y="1392.5" as="sourcePoint" />
            <mxPoint x="1082.9900000000002" y="1437.5" as="targetPoint" />
          </mxGeometry>
        </mxCell>
        <mxCell id="1mK0NFg7NYRcFwX0BZbW-70" value="" style="endArrow=none;html=1;fontSize=56;strokeWidth=5;fillColor=#dae8fc;strokeColor=#6c8ebf;opacity=60;" edge="1" parent="1" source="1mK0NFg7NYRcFwX0BZbW-55" target="1mK0NFg7NYRcFwX0BZbW-113">
          <mxGeometry width="50" height="50" relative="1" as="geometry">
            <mxPoint x="1002.9900000000002" y="1402.5" as="sourcePoint" />
            <mxPoint x="1092.9900000000002" y="1447.5" as="targetPoint" />
          </mxGeometry>
        </mxCell>
        <mxCell id="1mK0NFg7NYRcFwX0BZbW-71" value="" style="endArrow=none;html=1;fontSize=56;strokeWidth=5;fillColor=#dae8fc;strokeColor=#6c8ebf;opacity=60;" edge="1" parent="1" source="1mK0NFg7NYRcFwX0BZbW-117" target="1mK0NFg7NYRcFwX0BZbW-113">
          <mxGeometry width="50" height="50" relative="1" as="geometry">
            <mxPoint x="1012.9900000000002" y="1412.5" as="sourcePoint" />
            <mxPoint x="1102.9900000000002" y="1457.5" as="targetPoint" />
          </mxGeometry>
        </mxCell>
        <mxCell id="1mK0NFg7NYRcFwX0BZbW-72" value="" style="endArrow=none;html=1;fontSize=56;strokeWidth=5;fillColor=#dae8fc;strokeColor=#6c8ebf;opacity=60;" edge="1" parent="1" source="1mK0NFg7NYRcFwX0BZbW-117" target="1mK0NFg7NYRcFwX0BZbW-116">
          <mxGeometry width="50" height="50" relative="1" as="geometry">
            <mxPoint x="1022.9900000000002" y="1422.5" as="sourcePoint" />
            <mxPoint x="1112.9900000000002" y="1467.5" as="targetPoint" />
          </mxGeometry>
        </mxCell>
        <mxCell id="1mK0NFg7NYRcFwX0BZbW-73" value="" style="endArrow=none;html=1;fontSize=56;strokeWidth=5;fillColor=#dae8fc;strokeColor=#6c8ebf;opacity=60;" edge="1" parent="1" source="1mK0NFg7NYRcFwX0BZbW-116" target="1mK0NFg7NYRcFwX0BZbW-115">
          <mxGeometry width="50" height="50" relative="1" as="geometry">
            <mxPoint x="1032.9900000000002" y="1432.5" as="sourcePoint" />
            <mxPoint x="1122.9900000000002" y="1477.5" as="targetPoint" />
          </mxGeometry>
        </mxCell>
        <mxCell id="1mK0NFg7NYRcFwX0BZbW-74" value="" style="endArrow=none;html=1;fontSize=56;strokeWidth=5;fillColor=#dae8fc;strokeColor=#6c8ebf;opacity=60;" edge="1" parent="1" source="1mK0NFg7NYRcFwX0BZbW-56" target="1mK0NFg7NYRcFwX0BZbW-60">
          <mxGeometry width="50" height="50" relative="1" as="geometry">
            <mxPoint x="1152.9900000000002" y="1410" as="sourcePoint" />
            <mxPoint x="1132.9900000000002" y="1487.5" as="targetPoint" />
          </mxGeometry>
        </mxCell>
        <mxCell id="1mK0NFg7NYRcFwX0BZbW-75" value="" style="endArrow=none;html=1;fontSize=56;strokeWidth=5;fillColor=#dae8fc;strokeColor=#6c8ebf;opacity=60;" edge="1" parent="1" source="1mK0NFg7NYRcFwX0BZbW-60" target="1mK0NFg7NYRcFwX0BZbW-63">
          <mxGeometry width="50" height="50" relative="1" as="geometry">
            <mxPoint x="1178.4600000000005" y="1421.8377780120163" as="sourcePoint" />
            <mxPoint x="1243.3300000000004" y="1408.1622219879837" as="targetPoint" />
          </mxGeometry>
        </mxCell>
        <mxCell id="1mK0NFg7NYRcFwX0BZbW-76" value="" style="endArrow=none;html=1;fontSize=56;strokeWidth=5;fillColor=#dae8fc;strokeColor=#6c8ebf;opacity=60;" edge="1" parent="1" source="1mK0NFg7NYRcFwX0BZbW-63" target="1mK0NFg7NYRcFwX0BZbW-110">
          <mxGeometry width="50" height="50" relative="1" as="geometry">
            <mxPoint x="1188.4600000000005" y="1431.8377780120163" as="sourcePoint" />
            <mxPoint x="1253.3300000000004" y="1418.1622219879837" as="targetPoint" />
          </mxGeometry>
        </mxCell>
        <mxCell id="1mK0NFg7NYRcFwX0BZbW-77" value="" style="endArrow=none;html=1;fontSize=56;strokeWidth=5;fillColor=#dae8fc;strokeColor=#6c8ebf;opacity=60;sourcePerimeterSpacing=-4;targetPerimeterSpacing=-4;" edge="1" parent="1" source="1mK0NFg7NYRcFwX0BZbW-57" target="1mK0NFg7NYRcFwX0BZbW-58">
          <mxGeometry width="50" height="50" relative="1" as="geometry">
            <mxPoint x="1198.4600000000005" y="1441.8377780120163" as="sourcePoint" />
            <mxPoint x="1263.3300000000004" y="1428.1622219879837" as="targetPoint" />
          </mxGeometry>
        </mxCell>
        <mxCell id="1mK0NFg7NYRcFwX0BZbW-78" value="" style="endArrow=none;html=1;fontSize=56;strokeWidth=5;fillColor=#dae8fc;strokeColor=#6c8ebf;opacity=60;sourcePerimeterSpacing=-3;targetPerimeterSpacing=-3;" edge="1" parent="1" source="1mK0NFg7NYRcFwX0BZbW-58" target="1mK0NFg7NYRcFwX0BZbW-61">
          <mxGeometry width="50" height="50" relative="1" as="geometry">
            <mxPoint x="1208.4600000000005" y="1451.8377780120163" as="sourcePoint" />
            <mxPoint x="1273.3300000000004" y="1438.1622219879837" as="targetPoint" />
          </mxGeometry>
        </mxCell>
        <mxCell id="1mK0NFg7NYRcFwX0BZbW-79" value="" style="endArrow=none;html=1;fontSize=56;strokeWidth=5;fillColor=#dae8fc;strokeColor=#6c8ebf;opacity=60;" edge="1" parent="1" source="1mK0NFg7NYRcFwX0BZbW-59" target="1mK0NFg7NYRcFwX0BZbW-61">
          <mxGeometry width="50" height="50" relative="1" as="geometry">
            <mxPoint x="1218.4600000000005" y="1461.8377780120163" as="sourcePoint" />
            <mxPoint x="1283.33" y="1448.1622219879837" as="targetPoint" />
          </mxGeometry>
        </mxCell>
        <mxCell id="1mK0NFg7NYRcFwX0BZbW-80" value="" style="endArrow=none;html=1;fontSize=56;strokeWidth=5;fillColor=#dae8fc;strokeColor=#6c8ebf;opacity=60;" edge="1" parent="1" source="1mK0NFg7NYRcFwX0BZbW-59" target="1mK0NFg7NYRcFwX0BZbW-57">
          <mxGeometry width="50" height="50" relative="1" as="geometry">
            <mxPoint x="1228.4600000000005" y="1471.8377780120163" as="sourcePoint" />
            <mxPoint x="1293.33" y="1458.1622219879837" as="targetPoint" />
          </mxGeometry>
        </mxCell>
        <mxCell id="1mK0NFg7NYRcFwX0BZbW-81" value="" style="endArrow=none;html=1;fontSize=56;strokeWidth=5;fillColor=#dae8fc;strokeColor=#6c8ebf;opacity=60;" edge="1" parent="1" source="1mK0NFg7NYRcFwX0BZbW-61" target="1mK0NFg7NYRcFwX0BZbW-109">
          <mxGeometry width="50" height="50" relative="1" as="geometry">
            <mxPoint x="1238.4600000000005" y="1481.8377780120163" as="sourcePoint" />
            <mxPoint x="1303.33" y="1468.1622219879837" as="targetPoint" />
          </mxGeometry>
        </mxCell>
        <mxCell id="1mK0NFg7NYRcFwX0BZbW-82" value="" style="endArrow=none;html=1;fontSize=56;strokeWidth=5;fillColor=#dae8fc;strokeColor=#6c8ebf;opacity=60;" edge="1" parent="1" source="1mK0NFg7NYRcFwX0BZbW-109" target="1mK0NFg7NYRcFwX0BZbW-62">
          <mxGeometry width="50" height="50" relative="1" as="geometry">
            <mxPoint x="1248.4600000000005" y="1491.8377780120163" as="sourcePoint" />
            <mxPoint x="1313.33" y="1478.1622219879837" as="targetPoint" />
          </mxGeometry>
        </mxCell>
        <mxCell id="1mK0NFg7NYRcFwX0BZbW-83" value="" style="endArrow=none;html=1;fontSize=56;strokeWidth=5;fillColor=#dae8fc;strokeColor=#6c8ebf;opacity=60;targetPerimeterSpacing=-1;sourcePerimeterSpacing=-1;" edge="1" parent="1" source="1mK0NFg7NYRcFwX0BZbW-110" target="1mK0NFg7NYRcFwX0BZbW-62">
          <mxGeometry width="50" height="50" relative="1" as="geometry">
            <mxPoint x="1258.4600000000005" y="1501.8377780120163" as="sourcePoint" />
            <mxPoint x="1323.33" y="1488.1622219879837" as="targetPoint" />
          </mxGeometry>
        </mxCell>
        <mxCell id="1mK0NFg7NYRcFwX0BZbW-84" value="" style="endArrow=none;html=1;fontSize=56;strokeWidth=5;fillColor=#dae8fc;strokeColor=#6c8ebf;opacity=60;" edge="1" parent="1" source="1mK0NFg7NYRcFwX0BZbW-111" target="1mK0NFg7NYRcFwX0BZbW-110">
          <mxGeometry width="50" height="50" relative="1" as="geometry">
            <mxPoint x="1268.4600000000005" y="1511.8377780120163" as="sourcePoint" />
            <mxPoint x="1333.33" y="1498.1622219879837" as="targetPoint" />
          </mxGeometry>
        </mxCell>
        <mxCell id="1mK0NFg7NYRcFwX0BZbW-85" value="" style="endArrow=none;html=1;fontSize=56;strokeWidth=5;fillColor=#dae8fc;strokeColor=#6c8ebf;opacity=60;" edge="1" parent="1" source="1mK0NFg7NYRcFwX0BZbW-111" target="1mK0NFg7NYRcFwX0BZbW-112">
          <mxGeometry width="50" height="50" relative="1" as="geometry">
            <mxPoint x="1278.46" y="1521.8377780120163" as="sourcePoint" />
            <mxPoint x="1343.33" y="1508.1622219879837" as="targetPoint" />
          </mxGeometry>
        </mxCell>
        <mxCell id="1mK0NFg7NYRcFwX0BZbW-86" value="" style="endArrow=none;html=1;fontSize=56;strokeWidth=5;fillColor=#dae8fc;strokeColor=#6c8ebf;opacity=60;" edge="1" parent="1" source="1mK0NFg7NYRcFwX0BZbW-112" target="1mK0NFg7NYRcFwX0BZbW-114">
          <mxGeometry width="50" height="50" relative="1" as="geometry">
            <mxPoint x="1288.46" y="1531.8377780120163" as="sourcePoint" />
            <mxPoint x="1353.33" y="1518.1622219879837" as="targetPoint" />
          </mxGeometry>
        </mxCell>
        <mxCell id="1mK0NFg7NYRcFwX0BZbW-87" value="" style="endArrow=none;html=1;fontSize=56;strokeWidth=5;fillColor=#dae8fc;strokeColor=#6c8ebf;opacity=60;" edge="1" parent="1" source="1mK0NFg7NYRcFwX0BZbW-60" target="1mK0NFg7NYRcFwX0BZbW-115">
          <mxGeometry width="50" height="50" relative="1" as="geometry">
            <mxPoint x="1298.46" y="1541.8377780120163" as="sourcePoint" />
            <mxPoint x="1363.33" y="1528.1622219879837" as="targetPoint" />
          </mxGeometry>
        </mxCell>
        <mxCell id="1mK0NFg7NYRcFwX0BZbW-88" value="" style="endArrow=none;html=1;fontSize=56;strokeWidth=5;fillColor=#dae8fc;strokeColor=#6c8ebf;opacity=60;" edge="1" parent="1" source="1mK0NFg7NYRcFwX0BZbW-115" target="1mK0NFg7NYRcFwX0BZbW-114">
          <mxGeometry width="50" height="50" relative="1" as="geometry">
            <mxPoint x="1308.46" y="1551.8377780120163" as="sourcePoint" />
            <mxPoint x="1373.33" y="1538.1622219879837" as="targetPoint" />
          </mxGeometry>
        </mxCell>
        <mxCell id="1mK0NFg7NYRcFwX0BZbW-89" value="" style="endArrow=none;html=1;fontSize=56;strokeWidth=5;fillColor=#dae8fc;strokeColor=#6c8ebf;opacity=60;targetPerimeterSpacing=-4;sourcePerimeterSpacing=-4;" edge="1" parent="1" source="1mK0NFg7NYRcFwX0BZbW-119" target="1mK0NFg7NYRcFwX0BZbW-112">
          <mxGeometry width="50" height="50" relative="1" as="geometry">
            <mxPoint x="1318.46" y="1561.8377780120163" as="sourcePoint" />
            <mxPoint x="1383.33" y="1548.1622219879837" as="targetPoint" />
          </mxGeometry>
        </mxCell>
        <mxCell id="1mK0NFg7NYRcFwX0BZbW-90" value="" style="endArrow=none;html=1;fontSize=56;strokeWidth=5;fillColor=#dae8fc;strokeColor=#6c8ebf;opacity=60;" edge="1" parent="1" source="1mK0NFg7NYRcFwX0BZbW-118" target="1mK0NFg7NYRcFwX0BZbW-119">
          <mxGeometry width="50" height="50" relative="1" as="geometry">
            <mxPoint x="1328.46" y="1571.8377780120163" as="sourcePoint" />
            <mxPoint x="1393.33" y="1558.1622219879837" as="targetPoint" />
          </mxGeometry>
        </mxCell>
        <mxCell id="1mK0NFg7NYRcFwX0BZbW-91" value="" style="endArrow=none;html=1;fontSize=56;strokeWidth=5;fillColor=#dae8fc;strokeColor=#6c8ebf;opacity=60;targetPerimeterSpacing=-4;sourcePerimeterSpacing=-4;" edge="1" parent="1" source="1mK0NFg7NYRcFwX0BZbW-117" target="1mK0NFg7NYRcFwX0BZbW-118">
          <mxGeometry width="50" height="50" relative="1" as="geometry">
            <mxPoint x="1338.46" y="1581.8377780120163" as="sourcePoint" />
            <mxPoint x="1403.33" y="1568.1622219879837" as="targetPoint" />
          </mxGeometry>
        </mxCell>
        <mxCell id="1mK0NFg7NYRcFwX0BZbW-92" value="" style="endArrow=none;html=1;fontSize=56;strokeWidth=5;fillColor=#dae8fc;strokeColor=#6c8ebf;opacity=60;sourcePerimeterSpacing=-2;targetPerimeterSpacing=-2;" edge="1" parent="1" source="1mK0NFg7NYRcFwX0BZbW-61" target="1mK0NFg7NYRcFwX0BZbW-63">
          <mxGeometry width="50" height="50" relative="1" as="geometry">
            <mxPoint x="1270.7450000000003" y="1310" as="sourcePoint" />
            <mxPoint x="1295.5749999999998" y="1340" as="targetPoint" />
          </mxGeometry>
        </mxCell>
        <mxCell id="1mK0NFg7NYRcFwX0BZbW-93" value="" style="endArrow=none;html=1;strokeColor=#33FF33;strokeWidth=5;fontSize=56;fillColor=#d5e8d4;opacity=60;targetPerimeterSpacing=-3;sourcePerimeterSpacing=-3;" edge="1" parent="1" source="1mK0NFg7NYRcFwX0BZbW-62" target="1mK0NFg7NYRcFwX0BZbW-15">
          <mxGeometry width="50" height="50" relative="1" as="geometry">
            <mxPoint x="1653.33" y="1480" as="sourcePoint" />
            <mxPoint x="1703.33" y="1430" as="targetPoint" />
          </mxGeometry>
        </mxCell>
        <mxCell id="1mK0NFg7NYRcFwX0BZbW-94" value="" style="endArrow=none;html=1;strokeColor=#33FF33;strokeWidth=5;fontSize=56;fillColor=#d5e8d4;opacity=60;sourcePerimeterSpacing=-3;targetPerimeterSpacing=-3;" edge="1" parent="1" source="1mK0NFg7NYRcFwX0BZbW-111" target="1mK0NFg7NYRcFwX0BZbW-17">
          <mxGeometry width="50" height="50" relative="1" as="geometry">
            <mxPoint x="1663.33" y="1490" as="sourcePoint" />
            <mxPoint x="1713.33" y="1440" as="targetPoint" />
          </mxGeometry>
        </mxCell>
        <mxCell id="1mK0NFg7NYRcFwX0BZbW-95" value="" style="endArrow=none;html=1;strokeColor=#33FF33;strokeWidth=5;fontSize=56;fillColor=#d5e8d4;opacity=60;sourcePerimeterSpacing=-4;targetPerimeterSpacing=-4;" edge="1" parent="1" source="1mK0NFg7NYRcFwX0BZbW-112" target="1mK0NFg7NYRcFwX0BZbW-19">
          <mxGeometry width="50" height="50" relative="1" as="geometry">
            <mxPoint x="1673.33" y="1500" as="sourcePoint" />
            <mxPoint x="1723.33" y="1450" as="targetPoint" />
          </mxGeometry>
        </mxCell>
        <mxCell id="1mK0NFg7NYRcFwX0BZbW-96" value="" style="endArrow=none;html=1;strokeColor=#99FF99;strokeWidth=5;fontSize=56;fillColor=#d5e8d4;opacity=60;sourcePerimeterSpacing=-4;targetPerimeterSpacing=-4;" edge="1" parent="1" source="1mK0NFg7NYRcFwX0BZbW-58" target="1mK0NFg7NYRcFwX0BZbW-12">
          <mxGeometry width="50" height="50" relative="1" as="geometry">
            <mxPoint x="1683.33" y="1510" as="sourcePoint" />
            <mxPoint x="1503.33" y="1280" as="targetPoint" />
          </mxGeometry>
        </mxCell>
        <mxCell id="1mK0NFg7NYRcFwX0BZbW-97" value="" style="endArrow=none;html=1;strokeColor=#99FF99;strokeWidth=5;fontSize=56;fillColor=#d5e8d4;opacity=60;sourcePerimeterSpacing=-4;targetPerimeterSpacing=-4;" edge="1" parent="1" source="1mK0NFg7NYRcFwX0BZbW-61" target="1mK0NFg7NYRcFwX0BZbW-13">
          <mxGeometry width="50" height="50" relative="1" as="geometry">
            <mxPoint x="1452.2224999999999" y="1310" as="sourcePoint" />
            <mxPoint x="1480.6875" y="1280" as="targetPoint" />
          </mxGeometry>
        </mxCell>
        <mxCell id="1mK0NFg7NYRcFwX0BZbW-98" value="" style="endArrow=none;html=1;strokeColor=#CCFFCC;strokeWidth=5;fontSize=56;fillColor=#d5e8d4;opacity=60;targetPerimeterSpacing=-3;sourcePerimeterSpacing=-2;" edge="1" parent="1" source="1mK0NFg7NYRcFwX0BZbW-54" target="1mK0NFg7NYRcFwX0BZbW-10">
          <mxGeometry width="50" height="50" relative="1" as="geometry">
            <mxPoint x="1462.2224999999999" y="1320" as="sourcePoint" />
            <mxPoint x="1490.6875" y="1290" as="targetPoint" />
          </mxGeometry>
        </mxCell>
        <mxCell id="1mK0NFg7NYRcFwX0BZbW-99" value="" style="endArrow=none;html=1;strokeColor=#CCFFCC;strokeWidth=5;fontSize=56;fillColor=#d5e8d4;opacity=60;targetPerimeterSpacing=-2;sourcePerimeterSpacing=-2;" edge="1" parent="1" source="1mK0NFg7NYRcFwX0BZbW-53" target="1mK0NFg7NYRcFwX0BZbW-9">
          <mxGeometry width="50" height="50" relative="1" as="geometry">
            <mxPoint x="1472.2224999999999" y="1330" as="sourcePoint" />
            <mxPoint x="1500.6875" y="1300" as="targetPoint" />
          </mxGeometry>
        </mxCell>
        <mxCell id="1mK0NFg7NYRcFwX0BZbW-100" value="" style="endArrow=none;html=1;strokeColor=#33FF33;strokeWidth=5;fontSize=56;fillColor=#d5e8d4;opacity=60;targetPerimeterSpacing=-4;sourcePerimeterSpacing=-4;" edge="1" parent="1" source="1mK0NFg7NYRcFwX0BZbW-110" target="1mK0NFg7NYRcFwX0BZbW-7">
          <mxGeometry width="50" height="50" relative="1" as="geometry">
            <mxPoint x="1482.2224999999999" y="1340" as="sourcePoint" />
            <mxPoint x="1510.6875" y="1310" as="targetPoint" />
          </mxGeometry>
        </mxCell>
        <mxCell id="1mK0NFg7NYRcFwX0BZbW-101" value="" style="endArrow=none;html=1;strokeColor=#33FF33;strokeWidth=5;fontSize=56;fillColor=#d5e8d4;opacity=60;targetPerimeterSpacing=-4;sourcePerimeterSpacing=-4;" edge="1" parent="1" source="1mK0NFg7NYRcFwX0BZbW-109" target="1mK0NFg7NYRcFwX0BZbW-14">
          <mxGeometry width="50" height="50" relative="1" as="geometry">
            <mxPoint x="1442.9899999999998" y="1411.5531151949804" as="sourcePoint" />
            <mxPoint x="1479.92" y="1378.4468848050203" as="targetPoint" />
          </mxGeometry>
        </mxCell>
        <mxCell id="1mK0NFg7NYRcFwX0BZbW-102" value="" style="endArrow=none;html=1;strokeColor=#99FF99;strokeWidth=5;fontSize=56;fillColor=#d5e8d4;opacity=60;targetPerimeterSpacing=-3;sourcePerimeterSpacing=-3;" edge="1" parent="1" source="1mK0NFg7NYRcFwX0BZbW-115" target="1mK0NFg7NYRcFwX0BZbW-21">
          <mxGeometry width="50" height="50" relative="1" as="geometry">
            <mxPoint x="1559.7224999999999" y="1350.0000000000002" as="sourcePoint" />
            <mxPoint x="1583.1875" y="1320.0000000000002" as="targetPoint" />
          </mxGeometry>
        </mxCell>
        <mxCell id="1mK0NFg7NYRcFwX0BZbW-103" value="" style="endArrow=none;html=1;strokeColor=#99FF99;strokeWidth=5;fontSize=56;fillColor=#d5e8d4;opacity=60;sourcePerimeterSpacing=-2;" edge="1" parent="1" source="1mK0NFg7NYRcFwX0BZbW-119" target="1mK0NFg7NYRcFwX0BZbW-23">
          <mxGeometry width="50" height="50" relative="1" as="geometry">
            <mxPoint x="1569.7224999999999" y="1360.0000000000002" as="sourcePoint" />
            <mxPoint x="1593.1875" y="1330.0000000000002" as="targetPoint" />
          </mxGeometry>
        </mxCell>
        <mxCell id="1mK0NFg7NYRcFwX0BZbW-104" value="" style="endArrow=none;html=1;strokeColor=#CCFFCC;strokeWidth=5;fontSize=56;fillColor=#d5e8d4;opacity=60;targetPerimeterSpacing=-4;sourcePerimeterSpacing=-4;" edge="1" parent="1" source="1mK0NFg7NYRcFwX0BZbW-118" target="1mK0NFg7NYRcFwX0BZbW-24">
          <mxGeometry width="50" height="50" relative="1" as="geometry">
            <mxPoint x="1579.7224999999999" y="1370.0000000000002" as="sourcePoint" />
            <mxPoint x="1603.1875" y="1340.0000000000002" as="targetPoint" />
          </mxGeometry>
        </mxCell>
        <mxCell id="1mK0NFg7NYRcFwX0BZbW-105" value="" style="endArrow=none;html=1;strokeColor=#CCFFCC;strokeWidth=5;fontSize=56;fillColor=#d5e8d4;opacity=60;sourcePerimeterSpacing=-2;targetPerimeterSpacing=-1;" edge="1" parent="1" source="1mK0NFg7NYRcFwX0BZbW-116" target="1mK0NFg7NYRcFwX0BZbW-20">
          <mxGeometry width="50" height="50" relative="1" as="geometry">
            <mxPoint x="1589.7224999999999" y="1380.0000000000002" as="sourcePoint" />
            <mxPoint x="1613.1875" y="1350.0000000000002" as="targetPoint" />
          </mxGeometry>
        </mxCell>
        <mxCell id="1mK0NFg7NYRcFwX0BZbW-106" value="" style="endArrow=none;html=1;strokeColor=#CCFFCC;strokeWidth=5;fontSize=56;fillColor=#d5e8d4;opacity=60;" edge="1" parent="1" source="1mK0NFg7NYRcFwX0BZbW-117" target="1mK0NFg7NYRcFwX0BZbW-18">
          <mxGeometry width="50" height="50" relative="1" as="geometry">
            <mxPoint x="1599.7224999999999" y="1390.0000000000002" as="sourcePoint" />
            <mxPoint x="1623.1875" y="1360.0000000000002" as="targetPoint" />
          </mxGeometry>
        </mxCell>
        <mxCell id="1mK0NFg7NYRcFwX0BZbW-107" value="" style="endArrow=none;html=1;strokeColor=#99FF99;strokeWidth=5;fontSize=56;fillColor=#d5e8d4;opacity=60;targetPerimeterSpacing=-2;sourcePerimeterSpacing=-2;" edge="1" parent="1" source="1mK0NFg7NYRcFwX0BZbW-114" target="1mK0NFg7NYRcFwX0BZbW-22">
          <mxGeometry width="50" height="50" relative="1" as="geometry">
            <mxPoint x="1609.7224999999999" y="1400.0000000000002" as="sourcePoint" />
            <mxPoint x="1348.33" y="1625" as="targetPoint" />
          </mxGeometry>
        </mxCell>
        <mxCell id="1mK0NFg7NYRcFwX0BZbW-108" value="" style="endArrow=none;html=1;strokeColor=#CCFFCC;strokeWidth=5;fontSize=56;fillColor=#d5e8d4;opacity=60;sourcePerimeterSpacing=-3;targetPerimeterSpacing=-3;" edge="1" parent="1" source="1mK0NFg7NYRcFwX0BZbW-113" target="1mK0NFg7NYRcFwX0BZbW-16">
          <mxGeometry width="50" height="50" relative="1" as="geometry">
            <mxPoint x="1619.7224999999999" y="1410.0000000000002" as="sourcePoint" />
            <mxPoint x="1643.1875" y="1380.0000000000002" as="targetPoint" />
          </mxGeometry>
        </mxCell>
        <mxCell id="1mK0NFg7NYRcFwX0BZbW-109" value="" style="shape=ellipse;fillColor=#3399FF;strokeColor=#000000;html=1;opacity=90;" vertex="1" parent="1">
          <mxGeometry x="1412.9899999999998" y="1300" width="30" height="30" as="geometry" />
        </mxCell>
        <mxCell id="1mK0NFg7NYRcFwX0BZbW-110" value="" style="shape=ellipse;fillColor=#3399FF;strokeColor=#000000;html=1;opacity=90;" vertex="1" parent="1">
          <mxGeometry x="1402.9899999999998" y="1400" width="30" height="30" as="geometry" />
        </mxCell>
        <mxCell id="1mK0NFg7NYRcFwX0BZbW-111" value="" style="shape=ellipse;fillColor=#3399FF;strokeColor=#000000;html=1;opacity=90;" vertex="1" parent="1">
          <mxGeometry x="1372.9899999999998" y="1590" width="30" height="30" as="geometry" />
        </mxCell>
        <mxCell id="1mK0NFg7NYRcFwX0BZbW-112" value="" style="shape=ellipse;fillColor=#3399FF;strokeColor=#000000;html=1;opacity=90;" vertex="1" parent="1">
          <mxGeometry x="1382.9899999999998" y="1670" width="30" height="30" as="geometry" />
        </mxCell>
        <mxCell id="1mK0NFg7NYRcFwX0BZbW-113" value="" style="shape=ellipse;fillColor=#3399FF;strokeColor=#000000;html=1;opacity=90;" vertex="1" parent="1">
          <mxGeometry x="1072.9900000000002" y="1600" width="30" height="30" as="geometry" />
        </mxCell>
        <mxCell id="1mK0NFg7NYRcFwX0BZbW-114" value="" style="shape=ellipse;fillColor=#3399FF;strokeColor=#000000;html=1;opacity=90;" vertex="1" parent="1">
          <mxGeometry x="1332.9899999999998" y="1660" width="30" height="30" as="geometry" />
        </mxCell>
        <mxCell id="1mK0NFg7NYRcFwX0BZbW-115" value="" style="shape=ellipse;fillColor=#3399FF;strokeColor=#000000;html=1;opacity=90;" vertex="1" parent="1">
          <mxGeometry x="1222.9900000000002" y="1660" width="30" height="30" as="geometry" />
        </mxCell>
        <mxCell id="1mK0NFg7NYRcFwX0BZbW-116" value="" style="shape=ellipse;fillColor=#3399FF;strokeColor=#000000;html=1;opacity=90;" vertex="1" parent="1">
          <mxGeometry x="1112.9900000000002" y="1660" width="30" height="30" as="geometry" />
        </mxCell>
        <mxCell id="1mK0NFg7NYRcFwX0BZbW-117" value="" style="shape=ellipse;fillColor=#3399FF;strokeColor=#000000;html=1;opacity=90;" vertex="1" parent="1">
          <mxGeometry x="1052.9900000000002" y="1670" width="30" height="30" as="geometry" />
        </mxCell>
        <mxCell id="1mK0NFg7NYRcFwX0BZbW-118" value="" style="shape=ellipse;fillColor=#3399FF;strokeColor=#000000;html=1;opacity=90;" vertex="1" parent="1">
          <mxGeometry x="1172.9900000000002" y="1780" width="30" height="30" as="geometry" />
        </mxCell>
        <mxCell id="1mK0NFg7NYRcFwX0BZbW-119" value="" style="shape=ellipse;fillColor=#3399FF;strokeColor=#000000;html=1;opacity=90;" vertex="1" parent="1">
          <mxGeometry x="1263.33" y="1780" width="30" height="30" as="geometry" />
        </mxCell>
        <mxCell id="1mK0NFg7NYRcFwX0BZbW-120" value="" style="shape=ellipse;fillColor=#0066CC;strokeColor=#0066CC;html=1" vertex="1" parent="1">
          <mxGeometry x="864.9200000000001" y="1410" width="30" height="30" as="geometry" />
        </mxCell>
        <mxCell id="1mK0NFg7NYRcFwX0BZbW-121" value="" style="shape=ellipse;fillColor=#0066CC;strokeColor=#0066CC;html=1" vertex="1" parent="1">
          <mxGeometry x="986.9200000000001" y="1480" width="30" height="30" as="geometry" />
        </mxCell>
        <mxCell id="1mK0NFg7NYRcFwX0BZbW-122" value="" style="shape=ellipse;fillColor=#0066CC;strokeColor=#0066CC;html=1" vertex="1" parent="1">
          <mxGeometry x="1074.92" y="1470" width="30" height="30" as="geometry" />
        </mxCell>
        <mxCell id="1mK0NFg7NYRcFwX0BZbW-123" value="" style="shape=ellipse;fillColor=#0066CC;strokeColor=#0066CC;html=1" vertex="1" parent="1">
          <mxGeometry x="986.9200000000001" y="1370" width="30" height="30" as="geometry" />
        </mxCell>
        <mxCell id="1mK0NFg7NYRcFwX0BZbW-124" value="" style="shape=ellipse;fillColor=#0066CC;strokeColor=#0066CC;html=1;direction=south;" vertex="1" parent="1">
          <mxGeometry x="1114.92" y="1400" width="30" height="30" as="geometry" />
        </mxCell>
        <mxCell id="1mK0NFg7NYRcFwX0BZbW-125" value="" style="shape=ellipse;fillColor=#0066CC;strokeColor=#0066CC;html=1" vertex="1" parent="1">
          <mxGeometry x="1171.0500000000002" y="1350" width="30" height="30" as="geometry" />
        </mxCell>
        <mxCell id="1mK0NFg7NYRcFwX0BZbW-126" value="" style="shape=ellipse;fillColor=#0066CC;strokeColor=#0066CC;html=1" vertex="1" parent="1">
          <mxGeometry x="1171.0500000000002" y="1400" width="30" height="30" as="geometry" />
        </mxCell>
        <mxCell id="1mK0NFg7NYRcFwX0BZbW-127" value="" style="shape=ellipse;fillColor=#0066CC;strokeColor=#0066CC;html=1" vertex="1" parent="1">
          <mxGeometry x="1171.0500000000002" y="1460" width="30" height="30" as="geometry" />
        </mxCell>
        <mxCell id="1mK0NFg7NYRcFwX0BZbW-128" value="" style="shape=ellipse;fillColor=#0066CC;strokeColor=#0066CC;html=1" vertex="1" parent="1">
          <mxGeometry x="1224.92" y="1400" width="30" height="30" as="geometry" />
        </mxCell>
        <mxCell id="1mK0NFg7NYRcFwX0BZbW-129" value="" style="shape=ellipse;fillColor=#0066CC;strokeColor=#0066CC;html=1" vertex="1" parent="1">
          <mxGeometry x="1264.92" y="1470" width="30" height="30" as="geometry" />
        </mxCell>
        <mxCell id="1mK0NFg7NYRcFwX0BZbW-130" value="" style="shape=ellipse;fillColor=#0066CC;strokeColor=#0066CC;html=1" vertex="1" parent="1">
          <mxGeometry x="1354.92" y="1370" width="30" height="30" as="geometry" />
        </mxCell>
        <mxCell id="1mK0NFg7NYRcFwX0BZbW-131" value="" style="shape=ellipse;fillColor=#0066CC;strokeColor=#0066CC;html=1" vertex="1" parent="1">
          <mxGeometry x="1474.92" y="1420" width="30" height="30" as="geometry" />
        </mxCell>
        <mxCell id="1mK0NFg7NYRcFwX0BZbW-132" value="" style="shape=ellipse;fillColor=#0066CC;strokeColor=#0066CC;html=1" vertex="1" parent="1">
          <mxGeometry x="1354.92" y="1470" width="30" height="30" as="geometry" />
        </mxCell>
        <mxCell id="1mK0NFg7NYRcFwX0BZbW-133" value="" style="shape=ellipse;fillColor=#0066CC;strokeColor=#0066CC;html=1" vertex="1" parent="1">
          <mxGeometry x="974.9200000000001" y="1740" width="30" height="30" as="geometry" />
        </mxCell>
        <mxCell id="1mK0NFg7NYRcFwX0BZbW-134" value="" style="shape=ellipse;fillColor=#0066CC;strokeColor=#0066CC;html=1" vertex="1" parent="1">
          <mxGeometry x="1094.92" y="1870" width="30" height="30" as="geometry" />
        </mxCell>
        <mxCell id="1mK0NFg7NYRcFwX0BZbW-135" value="" style="shape=ellipse;fillColor=#0066CC;strokeColor=#0066CC;html=1" vertex="1" parent="1">
          <mxGeometry x="1244.92" y="1870" width="30" height="30" as="geometry" />
        </mxCell>
        <mxCell id="1mK0NFg7NYRcFwX0BZbW-136" value="" style="shape=ellipse;fillColor=#0066CC;strokeColor=#0066CC;html=1" vertex="1" parent="1">
          <mxGeometry x="1364.92" y="1750" width="30" height="30" as="geometry" />
        </mxCell>
        <mxCell id="1mK0NFg7NYRcFwX0BZbW-137" value="" style="shape=ellipse;fillColor=#0066CC;strokeColor=#0066CC;html=1" vertex="1" parent="1">
          <mxGeometry x="1314.92" y="1680" width="30" height="30" as="geometry" />
        </mxCell>
        <mxCell id="1mK0NFg7NYRcFwX0BZbW-138" value="" style="shape=ellipse;fillColor=#0066CC;strokeColor=#0066CC;html=1" vertex="1" parent="1">
          <mxGeometry x="1054.92" y="1730" width="30" height="30" as="geometry" />
        </mxCell>
        <mxCell id="1mK0NFg7NYRcFwX0BZbW-139" value="" style="shape=ellipse;fillColor=#0066CC;strokeColor=#0066CC;html=1" vertex="1" parent="1">
          <mxGeometry x="1164.92" y="1720" width="30" height="30" as="geometry" />
        </mxCell>
        <mxCell id="1mK0NFg7NYRcFwX0BZbW-140" value="" style="shape=ellipse;fillColor=#0066CC;strokeColor=#0066CC;html=1" vertex="1" parent="1">
          <mxGeometry x="1274.92" y="1730" width="30" height="30" as="geometry" />
        </mxCell>
        <mxCell id="1mK0NFg7NYRcFwX0BZbW-141" value="" style="endArrow=none;html=1;fontSize=56;strokeWidth=5;fillColor=#dae8fc;strokeColor=#0066CC;" edge="1" parent="1" source="1mK0NFg7NYRcFwX0BZbW-120" target="1mK0NFg7NYRcFwX0BZbW-123">
          <mxGeometry width="50" height="50" relative="1" as="geometry">
            <mxPoint x="864.9200000000001" y="1419.9984615384615" as="sourcePoint" />
            <mxPoint x="964.9200000000001" y="1396.9215384615386" as="targetPoint" />
          </mxGeometry>
        </mxCell>
        <mxCell id="1mK0NFg7NYRcFwX0BZbW-142" value="" style="endArrow=none;html=1;fontSize=56;strokeWidth=5;fillColor=#dae8fc;strokeColor=#0066CC;sourcePerimeterSpacing=-2;targetPerimeterSpacing=-2;" edge="1" parent="1" source="1mK0NFg7NYRcFwX0BZbW-120" target="1mK0NFg7NYRcFwX0BZbW-121">
          <mxGeometry width="50" height="50" relative="1" as="geometry">
            <mxPoint x="904.9200000000001" y="1430.0819672131147" as="sourcePoint" />
            <mxPoint x="996.9200000000001" y="1399.9180327868849" as="targetPoint" />
          </mxGeometry>
        </mxCell>
        <mxCell id="1mK0NFg7NYRcFwX0BZbW-143" value="" style="endArrow=none;html=1;fontSize=56;strokeWidth=5;fillColor=#dae8fc;strokeColor=#0066CC;sourcePerimeterSpacing=-2;targetPerimeterSpacing=-2;" edge="1" parent="1" source="1mK0NFg7NYRcFwX0BZbW-122" target="1mK0NFg7NYRcFwX0BZbW-124">
          <mxGeometry width="50" height="50" relative="1" as="geometry">
            <mxPoint x="924.9200000000001" y="1450.0819672131147" as="sourcePoint" />
            <mxPoint x="1016.92" y="1419.9180327868849" as="targetPoint" />
          </mxGeometry>
        </mxCell>
        <mxCell id="1mK0NFg7NYRcFwX0BZbW-144" value="" style="endArrow=none;html=1;fontSize=56;strokeWidth=5;fillColor=#dae8fc;strokeColor=#0066CC;" edge="1" parent="1" source="1mK0NFg7NYRcFwX0BZbW-121" target="1mK0NFg7NYRcFwX0BZbW-122">
          <mxGeometry width="50" height="50" relative="1" as="geometry">
            <mxPoint x="934.9200000000001" y="1460.0819672131147" as="sourcePoint" />
            <mxPoint x="1026.92" y="1429.9180327868849" as="targetPoint" />
          </mxGeometry>
        </mxCell>
        <mxCell id="1mK0NFg7NYRcFwX0BZbW-145" value="" style="endArrow=none;html=1;fontSize=56;strokeWidth=5;fillColor=#dae8fc;strokeColor=#0066CC;" edge="1" parent="1" source="1mK0NFg7NYRcFwX0BZbW-124" target="1mK0NFg7NYRcFwX0BZbW-126">
          <mxGeometry width="50" height="50" relative="1" as="geometry">
            <mxPoint x="944.9200000000001" y="1470.0819672131147" as="sourcePoint" />
            <mxPoint x="1036.92" y="1439.9180327868849" as="targetPoint" />
          </mxGeometry>
        </mxCell>
        <mxCell id="1mK0NFg7NYRcFwX0BZbW-146" value="" style="endArrow=none;html=1;fontSize=56;strokeWidth=5;fillColor=#dae8fc;strokeColor=#0066CC;" edge="1" parent="1" source="1mK0NFg7NYRcFwX0BZbW-126" target="1mK0NFg7NYRcFwX0BZbW-128">
          <mxGeometry width="50" height="50" relative="1" as="geometry">
            <mxPoint x="954.9200000000001" y="1480.0819672131147" as="sourcePoint" />
            <mxPoint x="1046.92" y="1449.9180327868849" as="targetPoint" />
          </mxGeometry>
        </mxCell>
        <mxCell id="1mK0NFg7NYRcFwX0BZbW-147" value="" style="endArrow=none;html=1;fontSize=56;strokeWidth=5;fillColor=#dae8fc;strokeColor=#0066CC;targetPerimeterSpacing=-4;sourcePerimeterSpacing=-4;" edge="1" parent="1" source="1mK0NFg7NYRcFwX0BZbW-124" target="1mK0NFg7NYRcFwX0BZbW-125">
          <mxGeometry width="50" height="50" relative="1" as="geometry">
            <mxPoint x="964.9200000000001" y="1490.0819672131147" as="sourcePoint" />
            <mxPoint x="1056.92" y="1459.9180327868849" as="targetPoint" />
          </mxGeometry>
        </mxCell>
        <mxCell id="1mK0NFg7NYRcFwX0BZbW-148" value="" style="endArrow=none;html=1;fontSize=56;strokeWidth=5;fillColor=#dae8fc;strokeColor=#0066CC;targetPerimeterSpacing=-4;sourcePerimeterSpacing=-6;" edge="1" parent="1" source="1mK0NFg7NYRcFwX0BZbW-125" target="1mK0NFg7NYRcFwX0BZbW-128">
          <mxGeometry width="50" height="50" relative="1" as="geometry">
            <mxPoint x="974.9200000000001" y="1500.0819672131147" as="sourcePoint" />
            <mxPoint x="1066.92" y="1469.9180327868849" as="targetPoint" />
          </mxGeometry>
        </mxCell>
        <mxCell id="1mK0NFg7NYRcFwX0BZbW-149" value="" style="endArrow=none;html=1;fontSize=56;strokeWidth=5;fillColor=#dae8fc;strokeColor=#0066CC;" edge="1" parent="1" source="1mK0NFg7NYRcFwX0BZbW-122" target="1mK0NFg7NYRcFwX0BZbW-127">
          <mxGeometry width="50" height="50" relative="1" as="geometry">
            <mxPoint x="984.9200000000001" y="1510.0819672131147" as="sourcePoint" />
            <mxPoint x="1076.92" y="1479.9180327868849" as="targetPoint" />
          </mxGeometry>
        </mxCell>
        <mxCell id="1mK0NFg7NYRcFwX0BZbW-150" value="" style="endArrow=none;html=1;fontSize=56;strokeWidth=5;fillColor=#dae8fc;strokeColor=#0066CC;targetPerimeterSpacing=-2;sourcePerimeterSpacing=-2;" edge="1" parent="1" source="1mK0NFg7NYRcFwX0BZbW-129" target="1mK0NFg7NYRcFwX0BZbW-128">
          <mxGeometry width="50" height="50" relative="1" as="geometry">
            <mxPoint x="994.9200000000001" y="1520.0819672131147" as="sourcePoint" />
            <mxPoint x="1086.92" y="1489.9180327868849" as="targetPoint" />
          </mxGeometry>
        </mxCell>
        <mxCell id="1mK0NFg7NYRcFwX0BZbW-151" value="" style="endArrow=none;html=1;fontSize=56;strokeWidth=5;fillColor=#dae8fc;strokeColor=#0066CC;" edge="1" parent="1" source="1mK0NFg7NYRcFwX0BZbW-127" target="1mK0NFg7NYRcFwX0BZbW-129">
          <mxGeometry width="50" height="50" relative="1" as="geometry">
            <mxPoint x="1004.9200000000001" y="1530.0819672131147" as="sourcePoint" />
            <mxPoint x="1096.92" y="1499.9180327868849" as="targetPoint" />
          </mxGeometry>
        </mxCell>
        <mxCell id="1mK0NFg7NYRcFwX0BZbW-152" value="" style="endArrow=none;html=1;fontSize=56;strokeWidth=5;fillColor=#dae8fc;strokeColor=#0066CC;" edge="1" parent="1" source="1mK0NFg7NYRcFwX0BZbW-128" target="1mK0NFg7NYRcFwX0BZbW-130">
          <mxGeometry width="50" height="50" relative="1" as="geometry">
            <mxPoint x="1014.92" y="1540.0819672131147" as="sourcePoint" />
            <mxPoint x="1106.92" y="1509.9180327868849" as="targetPoint" />
          </mxGeometry>
        </mxCell>
        <mxCell id="1mK0NFg7NYRcFwX0BZbW-153" value="" style="endArrow=none;html=1;fontSize=56;strokeWidth=5;fillColor=#dae8fc;strokeColor=#0066CC;sourcePerimeterSpacing=-1;targetPerimeterSpacing=-1;" edge="1" parent="1" source="1mK0NFg7NYRcFwX0BZbW-130" target="1mK0NFg7NYRcFwX0BZbW-131">
          <mxGeometry width="50" height="50" relative="1" as="geometry">
            <mxPoint x="1264.9199999999996" y="1421.5384615384614" as="sourcePoint" />
            <mxPoint x="1364.9199999999996" y="1398.4615384615386" as="targetPoint" />
          </mxGeometry>
        </mxCell>
        <mxCell id="1mK0NFg7NYRcFwX0BZbW-154" value="" style="endArrow=none;html=1;fontSize=56;strokeWidth=5;fillColor=#dae8fc;strokeColor=#0066CC;sourcePerimeterSpacing=-1;targetPerimeterSpacing=-1;" edge="1" parent="1" source="1mK0NFg7NYRcFwX0BZbW-132" target="1mK0NFg7NYRcFwX0BZbW-131">
          <mxGeometry width="50" height="50" relative="1" as="geometry">
            <mxPoint x="1274.9199999999996" y="1431.5384615384614" as="sourcePoint" />
            <mxPoint x="1374.9199999999996" y="1408.4615384615386" as="targetPoint" />
          </mxGeometry>
        </mxCell>
        <mxCell id="1mK0NFg7NYRcFwX0BZbW-155" value="" style="endArrow=none;html=1;fontSize=56;strokeWidth=5;fillColor=#dae8fc;strokeColor=#0066CC;" edge="1" parent="1" source="1mK0NFg7NYRcFwX0BZbW-129" target="1mK0NFg7NYRcFwX0BZbW-132">
          <mxGeometry width="50" height="50" relative="1" as="geometry">
            <mxPoint x="1284.9199999999996" y="1441.5384615384614" as="sourcePoint" />
            <mxPoint x="1384.9199999999996" y="1418.4615384615386" as="targetPoint" />
          </mxGeometry>
        </mxCell>
        <mxCell id="1mK0NFg7NYRcFwX0BZbW-156" value="" style="endArrow=none;html=1;fontSize=56;strokeWidth=5;fillColor=#dae8fc;strokeColor=#0066CC;" edge="1" parent="1" source="1mK0NFg7NYRcFwX0BZbW-132" target="1mK0NFg7NYRcFwX0BZbW-137">
          <mxGeometry width="50" height="50" relative="1" as="geometry">
            <mxPoint x="1294.9199999999996" y="1451.5384615384614" as="sourcePoint" />
            <mxPoint x="1394.9199999999996" y="1428.4615384615386" as="targetPoint" />
          </mxGeometry>
        </mxCell>
        <mxCell id="1mK0NFg7NYRcFwX0BZbW-157" value="" style="endArrow=none;html=1;fontSize=56;strokeWidth=5;fillColor=#dae8fc;strokeColor=#0066CC;sourcePerimeterSpacing=-3;targetPerimeterSpacing=-3;" edge="1" parent="1" source="1mK0NFg7NYRcFwX0BZbW-137" target="1mK0NFg7NYRcFwX0BZbW-136">
          <mxGeometry width="50" height="50" relative="1" as="geometry">
            <mxPoint x="1304.9199999999996" y="1461.5384615384614" as="sourcePoint" />
            <mxPoint x="1404.9199999999996" y="1438.4615384615386" as="targetPoint" />
          </mxGeometry>
        </mxCell>
        <mxCell id="1mK0NFg7NYRcFwX0BZbW-158" value="" style="endArrow=none;html=1;fontSize=56;strokeWidth=5;fillColor=#dae8fc;strokeColor=#0066CC;" edge="1" parent="1" source="1mK0NFg7NYRcFwX0BZbW-140" target="1mK0NFg7NYRcFwX0BZbW-136">
          <mxGeometry width="50" height="50" relative="1" as="geometry">
            <mxPoint x="1314.9199999999996" y="1471.5384615384614" as="sourcePoint" />
            <mxPoint x="1414.9199999999996" y="1448.4615384615386" as="targetPoint" />
          </mxGeometry>
        </mxCell>
        <mxCell id="1mK0NFg7NYRcFwX0BZbW-159" value="" style="endArrow=none;html=1;fontSize=56;strokeWidth=5;fillColor=#dae8fc;strokeColor=#0066CC;" edge="1" parent="1" source="1mK0NFg7NYRcFwX0BZbW-139" target="1mK0NFg7NYRcFwX0BZbW-140">
          <mxGeometry width="50" height="50" relative="1" as="geometry">
            <mxPoint x="1324.9199999999996" y="1770" as="sourcePoint" />
            <mxPoint x="1354.9199999999996" y="1780" as="targetPoint" />
          </mxGeometry>
        </mxCell>
        <mxCell id="1mK0NFg7NYRcFwX0BZbW-160" value="" style="endArrow=none;html=1;fontSize=56;strokeWidth=5;fillColor=#dae8fc;strokeColor=#0066CC;" edge="1" parent="1" source="1mK0NFg7NYRcFwX0BZbW-138" target="1mK0NFg7NYRcFwX0BZbW-139">
          <mxGeometry width="50" height="50" relative="1" as="geometry">
            <mxPoint x="1334.9199999999996" y="1780" as="sourcePoint" />
            <mxPoint x="1364.9199999999996" y="1790" as="targetPoint" />
          </mxGeometry>
        </mxCell>
        <mxCell id="1mK0NFg7NYRcFwX0BZbW-161" value="" style="endArrow=none;html=1;fontSize=56;strokeWidth=5;fillColor=#dae8fc;strokeColor=#0066CC;targetPerimeterSpacing=-4;sourcePerimeterSpacing=-4;" edge="1" parent="1" source="1mK0NFg7NYRcFwX0BZbW-135" target="1mK0NFg7NYRcFwX0BZbW-136">
          <mxGeometry width="50" height="50" relative="1" as="geometry">
            <mxPoint x="1344.9199999999996" y="1790" as="sourcePoint" />
            <mxPoint x="1374.9199999999996" y="1800" as="targetPoint" />
          </mxGeometry>
        </mxCell>
        <mxCell id="1mK0NFg7NYRcFwX0BZbW-162" value="" style="endArrow=none;html=1;fontSize=56;strokeWidth=5;fillColor=#dae8fc;strokeColor=#0066CC;" edge="1" parent="1" source="1mK0NFg7NYRcFwX0BZbW-135" target="1mK0NFg7NYRcFwX0BZbW-134">
          <mxGeometry width="50" height="50" relative="1" as="geometry">
            <mxPoint x="1354.9199999999996" y="1800" as="sourcePoint" />
            <mxPoint x="1384.9199999999996" y="1810" as="targetPoint" />
          </mxGeometry>
        </mxCell>
        <mxCell id="1mK0NFg7NYRcFwX0BZbW-163" value="" style="endArrow=none;html=1;fontSize=56;strokeWidth=5;fillColor=#dae8fc;strokeColor=#0066CC;sourcePerimeterSpacing=-4;targetPerimeterSpacing=-4;" edge="1" parent="1" source="1mK0NFg7NYRcFwX0BZbW-133" target="1mK0NFg7NYRcFwX0BZbW-134">
          <mxGeometry width="50" height="50" relative="1" as="geometry">
            <mxPoint x="1364.9199999999996" y="1810" as="sourcePoint" />
            <mxPoint x="1394.9199999999996" y="1820" as="targetPoint" />
          </mxGeometry>
        </mxCell>
        <mxCell id="1mK0NFg7NYRcFwX0BZbW-164" value="" style="endArrow=none;html=1;fontSize=56;strokeWidth=5;fillColor=#dae8fc;strokeColor=#0066CC;" edge="1" parent="1" source="1mK0NFg7NYRcFwX0BZbW-133" target="1mK0NFg7NYRcFwX0BZbW-138">
          <mxGeometry width="50" height="50" relative="1" as="geometry">
            <mxPoint x="1374.9199999999996" y="1820" as="sourcePoint" />
            <mxPoint x="1404.9199999999996" y="1830" as="targetPoint" />
          </mxGeometry>
        </mxCell>
        <mxCell id="1mK0NFg7NYRcFwX0BZbW-165" value="" style="endArrow=none;html=1;fontSize=56;strokeWidth=5;fillColor=#dae8fc;strokeColor=#0066CC;" edge="1" parent="1" source="1mK0NFg7NYRcFwX0BZbW-121" target="1mK0NFg7NYRcFwX0BZbW-186">
          <mxGeometry width="50" height="50" relative="1" as="geometry">
            <mxPoint x="1084.9199999999996" y="1756.25" as="sourcePoint" />
            <mxPoint x="1174.9199999999996" y="1763.75" as="targetPoint" />
          </mxGeometry>
        </mxCell>
        <mxCell id="1mK0NFg7NYRcFwX0BZbW-166" value="" style="endArrow=none;html=1;fontSize=56;strokeWidth=5;fillColor=#dae8fc;strokeColor=#0066CC;sourcePerimeterSpacing=-2;targetPerimeterSpacing=-3;" edge="1" parent="1" source="1mK0NFg7NYRcFwX0BZbW-186" target="1mK0NFg7NYRcFwX0BZbW-133">
          <mxGeometry width="50" height="50" relative="1" as="geometry">
            <mxPoint x="1094.9199999999996" y="1766.25" as="sourcePoint" />
            <mxPoint x="1184.9199999999996" y="1773.75" as="targetPoint" />
          </mxGeometry>
        </mxCell>
        <mxCell id="1mK0NFg7NYRcFwX0BZbW-167" value="" style="endArrow=none;html=1;fontSize=56;strokeWidth=5;fillColor=#dae8fc;strokeColor=#0066CC;" edge="1" parent="1" source="1mK0NFg7NYRcFwX0BZbW-127" target="1mK0NFg7NYRcFwX0BZbW-139">
          <mxGeometry width="50" height="50" relative="1" as="geometry">
            <mxPoint x="1104.9199999999996" y="1776.25" as="sourcePoint" />
            <mxPoint x="1194.9199999999996" y="1783.75" as="targetPoint" />
          </mxGeometry>
        </mxCell>
        <mxCell id="1mK0NFg7NYRcFwX0BZbW-168" value="" style="endArrow=none;html=1;strokeColor=#33FF33;strokeWidth=5;fontSize=56;fillColor=#d5e8d4;opacity=60;sourcePerimeterSpacing=-2;targetPerimeterSpacing=-2;" edge="1" parent="1" source="1mK0NFg7NYRcFwX0BZbW-131" target="1mK0NFg7NYRcFwX0BZbW-62">
          <mxGeometry width="50" height="50" relative="1" as="geometry">
            <mxPoint x="1559.7224999999999" y="1350.0000000000002" as="sourcePoint" />
            <mxPoint x="1583.1875" y="1320.0000000000002" as="targetPoint" />
          </mxGeometry>
        </mxCell>
        <mxCell id="1mK0NFg7NYRcFwX0BZbW-169" value="" style="endArrow=none;html=1;strokeColor=#33FF33;strokeWidth=5;fontSize=56;fillColor=#d5e8d4;opacity=60;targetPerimeterSpacing=-2;sourcePerimeterSpacing=-2;" edge="1" parent="1" source="1mK0NFg7NYRcFwX0BZbW-137" target="1mK0NFg7NYRcFwX0BZbW-111">
          <mxGeometry width="50" height="50" relative="1" as="geometry">
            <mxPoint x="1569.7224999999999" y="1360.0000000000002" as="sourcePoint" />
            <mxPoint x="1593.1875" y="1330.0000000000002" as="targetPoint" />
          </mxGeometry>
        </mxCell>
        <mxCell id="1mK0NFg7NYRcFwX0BZbW-170" value="" style="endArrow=none;html=1;strokeColor=#33FF33;strokeWidth=5;fontSize=56;fillColor=#d5e8d4;opacity=60;" edge="1" parent="1" source="1mK0NFg7NYRcFwX0BZbW-136" target="1mK0NFg7NYRcFwX0BZbW-112">
          <mxGeometry width="50" height="50" relative="1" as="geometry">
            <mxPoint x="1579.7224999999999" y="1370.0000000000002" as="sourcePoint" />
            <mxPoint x="1603.1875" y="1340.0000000000002" as="targetPoint" />
          </mxGeometry>
        </mxCell>
        <mxCell id="1mK0NFg7NYRcFwX0BZbW-171" value="" style="endArrow=none;html=1;strokeColor=#33FF33;strokeWidth=5;fontSize=56;fillColor=#d5e8d4;opacity=60;targetPerimeterSpacing=-3;sourcePerimeterSpacing=-3;" edge="1" parent="1" source="1mK0NFg7NYRcFwX0BZbW-130" target="1mK0NFg7NYRcFwX0BZbW-109">
          <mxGeometry width="50" height="50" relative="1" as="geometry">
            <mxPoint x="1452.2224999999999" y="1310.0000000000002" as="sourcePoint" />
            <mxPoint x="1480.6875" y="1280" as="targetPoint" />
          </mxGeometry>
        </mxCell>
        <mxCell id="1mK0NFg7NYRcFwX0BZbW-172" value="" style="endArrow=none;html=1;strokeColor=#99FF99;strokeWidth=5;fontSize=56;fillColor=#d5e8d4;opacity=60;targetPerimeterSpacing=-4;startSize=6;sourcePerimeterSpacing=-3;" edge="1" parent="1" source="1mK0NFg7NYRcFwX0BZbW-128" target="1mK0NFg7NYRcFwX0BZbW-61">
          <mxGeometry width="50" height="50" relative="1" as="geometry">
            <mxPoint x="1322.2224999999999" y="1340.0000000000002" as="sourcePoint" />
            <mxPoint x="1350.6875" y="1309.9999999999998" as="targetPoint" />
          </mxGeometry>
        </mxCell>
        <mxCell id="1mK0NFg7NYRcFwX0BZbW-173" value="" style="endArrow=none;html=1;strokeColor=#99FF99;strokeWidth=5;fontSize=56;fillColor=#d5e8d4;opacity=60;targetPerimeterSpacing=-3;sourcePerimeterSpacing=-3;" edge="1" parent="1" source="1mK0NFg7NYRcFwX0BZbW-125" target="1mK0NFg7NYRcFwX0BZbW-58">
          <mxGeometry width="50" height="50" relative="1" as="geometry">
            <mxPoint x="1273.33" y="1281.2951119232525" as="sourcePoint" />
            <mxPoint x="1309" y="1248.7048880767472" as="targetPoint" />
          </mxGeometry>
        </mxCell>
        <mxCell id="1mK0NFg7NYRcFwX0BZbW-174" value="" style="endArrow=none;html=1;strokeColor=#CCFFCC;strokeWidth=5;fontSize=56;fillColor=#d5e8d4;opacity=60;sourcePerimeterSpacing=-3;targetPerimeterSpacing=-4;" edge="1" parent="1" source="1mK0NFg7NYRcFwX0BZbW-123" target="1mK0NFg7NYRcFwX0BZbW-54">
          <mxGeometry width="50" height="50" relative="1" as="geometry">
            <mxPoint x="1092.9900000000002" y="1314.6468422868977" as="sourcePoint" />
            <mxPoint x="1149.92" y="1275.3531577131025" as="targetPoint" />
          </mxGeometry>
        </mxCell>
        <mxCell id="1mK0NFg7NYRcFwX0BZbW-175" value="" style="endArrow=none;html=1;strokeColor=#CCFFCC;strokeWidth=5;fontSize=56;fillColor=#d5e8d4;opacity=60;sourcePerimeterSpacing=-4;targetPerimeterSpacing=-4;" edge="1" parent="1" source="1mK0NFg7NYRcFwX0BZbW-120" target="1mK0NFg7NYRcFwX0BZbW-53">
          <mxGeometry width="50" height="50" relative="1" as="geometry">
            <mxPoint x="972.9900000000001" y="1354.6468422868977" as="sourcePoint" />
            <mxPoint x="1029.92" y="1315.3531577131027" as="targetPoint" />
          </mxGeometry>
        </mxCell>
        <mxCell id="1mK0NFg7NYRcFwX0BZbW-176" value="" style="endArrow=none;html=1;strokeColor=#CCFFCC;strokeWidth=5;fontSize=56;fillColor=#d5e8d4;opacity=60;targetPerimeterSpacing=-4;sourcePerimeterSpacing=-4;" edge="1" parent="1" source="1mK0NFg7NYRcFwX0BZbW-186" target="1mK0NFg7NYRcFwX0BZbW-113">
          <mxGeometry width="50" height="50" relative="1" as="geometry">
            <mxPoint x="1112.9900000000002" y="1612.9213160013805" as="sourcePoint" />
            <mxPoint x="1169.92" y="1567.0786839986197" as="targetPoint" />
          </mxGeometry>
        </mxCell>
        <mxCell id="1mK0NFg7NYRcFwX0BZbW-177" value="" style="endArrow=none;html=1;strokeColor=#CCFFCC;strokeWidth=5;fontSize=56;fillColor=#d5e8d4;opacity=60;sourcePerimeterSpacing=-3;targetPerimeterSpacing=-4;" edge="1" parent="1" source="1mK0NFg7NYRcFwX0BZbW-133" target="1mK0NFg7NYRcFwX0BZbW-117">
          <mxGeometry width="50" height="50" relative="1" as="geometry">
            <mxPoint x="1092.9900000000002" y="1688.5859060976654" as="sourcePoint" />
            <mxPoint x="1179.92" y="1651.414093902335" as="targetPoint" />
          </mxGeometry>
        </mxCell>
        <mxCell id="1mK0NFg7NYRcFwX0BZbW-178" value="" style="endArrow=none;html=1;strokeColor=#CCFFCC;strokeWidth=5;fontSize=56;fillColor=#d5e8d4;opacity=60;targetPerimeterSpacing=-3;sourcePerimeterSpacing=-3;" edge="1" parent="1" source="1mK0NFg7NYRcFwX0BZbW-138" target="1mK0NFg7NYRcFwX0BZbW-116">
          <mxGeometry width="50" height="50" relative="1" as="geometry">
            <mxPoint x="1152.9900000000002" y="1676.5832787805107" as="sourcePoint" />
            <mxPoint x="1229.92" y="1633.4167212194893" as="targetPoint" />
          </mxGeometry>
        </mxCell>
        <mxCell id="1mK0NFg7NYRcFwX0BZbW-179" value="" style="endArrow=none;html=1;strokeColor=#99FF99;strokeWidth=5;fontSize=56;fillColor=#d5e8d4;opacity=60;sourcePerimeterSpacing=-4;targetPerimeterSpacing=-4;" edge="1" parent="1" source="1mK0NFg7NYRcFwX0BZbW-139" target="1mK0NFg7NYRcFwX0BZbW-115">
          <mxGeometry width="50" height="50" relative="1" as="geometry">
            <mxPoint x="1262.9900000000007" y="1673.1594527035918" as="sourcePoint" />
            <mxPoint x="1309" y="1636.8405472964087" as="targetPoint" />
          </mxGeometry>
        </mxCell>
        <mxCell id="1mK0NFg7NYRcFwX0BZbW-180" value="" style="endArrow=none;html=1;strokeColor=#99FF99;strokeWidth=5;fontSize=56;fillColor=#d5e8d4;opacity=60;fontStyle=1;sourcePerimeterSpacing=-3;targetPerimeterSpacing=-3;" edge="1" parent="1" source="1mK0NFg7NYRcFwX0BZbW-134" target="1mK0NFg7NYRcFwX0BZbW-118">
          <mxGeometry width="50" height="50" relative="1" as="geometry">
            <mxPoint x="1282.9900000000007" y="1693.1594527035918" as="sourcePoint" />
            <mxPoint x="1329" y="1656.8405472964087" as="targetPoint" />
          </mxGeometry>
        </mxCell>
        <mxCell id="1mK0NFg7NYRcFwX0BZbW-181" value="" style="endArrow=none;html=1;strokeColor=#99FF99;strokeWidth=5;fontSize=56;fillColor=#d5e8d4;opacity=60;" edge="1" parent="1" source="1mK0NFg7NYRcFwX0BZbW-135" target="1mK0NFg7NYRcFwX0BZbW-119">
          <mxGeometry width="50" height="50" relative="1" as="geometry">
            <mxPoint x="1297.2850000000003" y="1790" as="sourcePoint" />
            <mxPoint x="1345.045" y="1710" as="targetPoint" />
          </mxGeometry>
        </mxCell>
        <mxCell id="1mK0NFg7NYRcFwX0BZbW-182" value="" style="endArrow=classic;html=1;strokeColor=#33FF33;strokeWidth=10;fontSize=56;opacity=60;" edge="1" parent="1">
          <mxGeometry width="50" height="50" relative="1" as="geometry">
            <mxPoint x="1539.9999999999995" y="1610" as="sourcePoint" />
            <mxPoint x="1369.9999999999995" y="1890" as="targetPoint" />
          </mxGeometry>
        </mxCell>
        <mxCell id="1mK0NFg7NYRcFwX0BZbW-183" value="Temporal" style="text;html=1;strokeColor=none;fillColor=none;align=center;verticalAlign=middle;whiteSpace=wrap;rounded=0;rotation=-60;fontSize=41;" vertex="1" parent="1">
          <mxGeometry x="1344.92" y="1730" width="300" height="80" as="geometry" />
        </mxCell>
        <mxCell id="1mK0NFg7NYRcFwX0BZbW-184" value="" style="endArrow=none;html=1;strokeColor=#99FF99;strokeWidth=5;fontSize=56;fillColor=#d5e8d4;opacity=60;targetPerimeterSpacing=-4;startSize=6;sourcePerimeterSpacing=-3;" edge="1" parent="1" source="1mK0NFg7NYRcFwX0BZbW-129" target="1mK0NFg7NYRcFwX0BZbW-63">
          <mxGeometry width="50" height="50" relative="1" as="geometry">
            <mxPoint x="1269.8748571428573" y="1423" as="sourcePoint" />
            <mxPoint x="1308.864714285714" y="1376" as="targetPoint" />
          </mxGeometry>
        </mxCell>
        <mxCell id="1mK0NFg7NYRcFwX0BZbW-185" value="" style="endArrow=none;html=1;strokeColor=#33FF33;strokeWidth=5;fontSize=56;fillColor=#d5e8d4;opacity=60;targetPerimeterSpacing=-4;sourcePerimeterSpacing=-4;" edge="1" parent="1" source="1mK0NFg7NYRcFwX0BZbW-132" target="1mK0NFg7NYRcFwX0BZbW-110">
          <mxGeometry width="50" height="50" relative="1" as="geometry">
            <mxPoint x="1438.9899999999998" y="1415.1389511429852" as="sourcePoint" />
            <mxPoint x="1483.92" y="1374.8610488570148" as="targetPoint" />
          </mxGeometry>
        </mxCell>
        <mxCell id="1mK0NFg7NYRcFwX0BZbW-186" value="" style="shape=ellipse;fillColor=#0066CC;strokeColor=#0066CC;html=1" vertex="1" parent="1">
          <mxGeometry x="1004.9200000000001" y="1680" width="30" height="30" as="geometry" />
        </mxCell>
        <mxCell id="1mK0NFg7NYRcFwX0BZbW-202" value="" style="endArrow=none;html=1;strokeColor=#CCFFCC;strokeWidth=5;fontSize=56;fillColor=#d5e8d4;opacity=60;sourcePerimeterSpacing=-3;targetPerimeterSpacing=-3;" edge="1" parent="1" source="1mK0NFg7NYRcFwX0BZbW-121" target="1mK0NFg7NYRcFwX0BZbW-55">
          <mxGeometry width="50" height="50" relative="1" as="geometry">
            <mxPoint x="1109.9900000000002" y="1615.3370528011042" as="sourcePoint" />
            <mxPoint x="1172.9199999999998" y="1564.6629471988958" as="targetPoint" />
          </mxGeometry>
        </mxCell>
        <mxCell id="1mK0NFg7NYRcFwX0BZbW-203" value="" style="endArrow=none;html=1;strokeColor=#CCFFCC;strokeWidth=5;fontSize=56;fillColor=#d5e8d4;opacity=60;sourcePerimeterSpacing=-3;targetPerimeterSpacing=-3;" edge="1" parent="1" source="1mK0NFg7NYRcFwX0BZbW-55" target="1mK0NFg7NYRcFwX0BZbW-11">
          <mxGeometry width="50" height="50" relative="1" as="geometry">
            <mxPoint x="1021.8305000000003" y="1493" as="sourcePoint" />
            <mxPoint x="1068.0795000000003" y="1437" as="targetPoint" />
          </mxGeometry>
        </mxCell>
        <mxCell id="1mK0NFg7NYRcFwX0BZbW-204" value="" style="endArrow=none;html=1;fontSize=56;strokeWidth=5;fillColor=#dae8fc;strokeColor=#0066CC;" edge="1" parent="1" source="1mK0NFg7NYRcFwX0BZbW-123" target="1mK0NFg7NYRcFwX0BZbW-124">
          <mxGeometry width="50" height="50" relative="1" as="geometry">
            <mxPoint x="914.9200000000001" y="1440.0819672131147" as="sourcePoint" />
            <mxPoint x="1006.9200000000001" y="1409.9180327868849" as="targetPoint" />
          </mxGeometry>
        </mxCell>
      </root>
    </mxGraphModel>
  </diagram>
  <diagram id="uMKQcpjVtKOv1Uu6E36i" name="Page-2">
    <mxGraphModel dx="44" dy="478" grid="1" gridSize="10" guides="1" tooltips="1" connect="1" arrows="1" fold="1" page="1" pageScale="1" pageWidth="827" pageHeight="1169" math="0" shadow="0">
      <root>
        <mxCell id="xQI_YbbWB0YSiwY82ygx-0" />
        <mxCell id="xQI_YbbWB0YSiwY82ygx-1" parent="xQI_YbbWB0YSiwY82ygx-0" />
        <mxCell id="xQI_YbbWB0YSiwY82ygx-2" value="" style="shape=ellipse;fillColor=#0066CC;strokeColor=#0066CC;html=1;" vertex="1" parent="xQI_YbbWB0YSiwY82ygx-1">
          <mxGeometry x="952.75" y="776.5" width="20" height="20" as="geometry" />
        </mxCell>
        <mxCell id="xQI_YbbWB0YSiwY82ygx-3" value="" style="shape=ellipse;fillColor=#0066CC;strokeColor=#0066CC;html=1;" vertex="1" parent="xQI_YbbWB0YSiwY82ygx-1">
          <mxGeometry x="902.24" y="836.5" width="20" height="20" as="geometry" />
        </mxCell>
        <mxCell id="xQI_YbbWB0YSiwY82ygx-4" value="" style="shape=ellipse;fillColor=#0066CC;strokeColor=#0066CC;html=1;" vertex="1" parent="xQI_YbbWB0YSiwY82ygx-1">
          <mxGeometry x="1002.2400000000001" y="836.5" width="20" height="20" as="geometry" />
        </mxCell>
        <mxCell id="xQI_YbbWB0YSiwY82ygx-5" value="" style="shape=ellipse;fillColor=#0066CC;strokeColor=#0066CC;html=1;" vertex="1" parent="xQI_YbbWB0YSiwY82ygx-1">
          <mxGeometry x="952.7500000000001" y="806.5" width="20" height="20" as="geometry" />
        </mxCell>
        <mxCell id="xQI_YbbWB0YSiwY82ygx-6" value="" style="shape=ellipse;fillColor=#0066CC;strokeColor=#0066CC;html=1;" vertex="1" parent="xQI_YbbWB0YSiwY82ygx-1">
          <mxGeometry x="958.7400000000001" y="866.5" width="20" height="20" as="geometry" />
        </mxCell>
        <mxCell id="xQI_YbbWB0YSiwY82ygx-7" value="" style="endArrow=none;html=1;fontSize=12;fillColor=#0066CC;strokeColor=#0066CC;" edge="1" parent="xQI_YbbWB0YSiwY82ygx-1" source="xQI_YbbWB0YSiwY82ygx-23" target="xQI_YbbWB0YSiwY82ygx-24">
          <mxGeometry width="50" height="50" relative="1" as="geometry">
            <mxPoint x="731.77" y="693.8800000000001" as="sourcePoint" />
            <mxPoint x="782.76" y="636.5" as="targetPoint" />
          </mxGeometry>
        </mxCell>
        <mxCell id="xQI_YbbWB0YSiwY82ygx-8" value="" style="endArrow=none;html=1;fontSize=12;fillColor=#0066CC;strokeColor=#0066CC;" edge="1" parent="xQI_YbbWB0YSiwY82ygx-1" source="xQI_YbbWB0YSiwY82ygx-24" target="xQI_YbbWB0YSiwY82ygx-25">
          <mxGeometry width="50" height="50" relative="1" as="geometry">
            <mxPoint x="822.76" y="620.3940809968849" as="sourcePoint" />
            <mxPoint x="936.84" y="646.9569055036345" as="targetPoint" />
          </mxGeometry>
        </mxCell>
        <mxCell id="xQI_YbbWB0YSiwY82ygx-9" value="" style="endArrow=none;html=1;fontSize=12;fillColor=#0066CC;strokeColor=#0066CC;" edge="1" parent="xQI_YbbWB0YSiwY82ygx-1" source="xQI_YbbWB0YSiwY82ygx-25" target="xQI_YbbWB0YSiwY82ygx-2">
          <mxGeometry width="50" height="50" relative="1" as="geometry">
            <mxPoint x="957.6737500000003" y="666.5" as="sourcePoint" />
            <mxPoint x="967.07" y="626.5" as="targetPoint" />
          </mxGeometry>
        </mxCell>
        <mxCell id="xQI_YbbWB0YSiwY82ygx-10" value="" style="endArrow=none;html=1;fontSize=12;fillColor=#0066CC;strokeColor=#0066CC;" edge="1" parent="xQI_YbbWB0YSiwY82ygx-1" source="xQI_YbbWB0YSiwY82ygx-25" target="xQI_YbbWB0YSiwY82ygx-28">
          <mxGeometry width="50" height="50" relative="1" as="geometry">
            <mxPoint x="976.84" y="647.2810993249759" as="sourcePoint" />
            <mxPoint x="1102.7600000000002" y="620.116200578592" as="targetPoint" />
          </mxGeometry>
        </mxCell>
        <mxCell id="xQI_YbbWB0YSiwY82ygx-11" value="" style="endArrow=none;html=1;fontSize=12;fillColor=#0066CC;strokeColor=#0066CC;" edge="1" parent="xQI_YbbWB0YSiwY82ygx-1" source="xQI_YbbWB0YSiwY82ygx-28" target="xQI_YbbWB0YSiwY82ygx-29">
          <mxGeometry width="50" height="50" relative="1" as="geometry">
            <mxPoint x="1142.7600000000002" y="633.6428571428571" as="sourcePoint" />
            <mxPoint x="1192.7600000000002" y="676.5" as="targetPoint" />
          </mxGeometry>
        </mxCell>
        <mxCell id="xQI_YbbWB0YSiwY82ygx-12" value="" style="endArrow=none;html=1;fontSize=12;fillColor=#0066CC;strokeColor=#0066CC;" edge="1" parent="xQI_YbbWB0YSiwY82ygx-1" source="xQI_YbbWB0YSiwY82ygx-2" target="xQI_YbbWB0YSiwY82ygx-5">
          <mxGeometry width="50" height="50" relative="1" as="geometry">
            <mxPoint x="1037.5300000000002" y="746.5" as="sourcePoint" />
            <mxPoint x="1057.0700000000002" y="716.5" as="targetPoint" />
          </mxGeometry>
        </mxCell>
        <mxCell id="xQI_YbbWB0YSiwY82ygx-13" value="" style="endArrow=none;html=1;fontSize=12;fillColor=#0066CC;strokeColor=#0066CC;" edge="1" parent="xQI_YbbWB0YSiwY82ygx-1" source="xQI_YbbWB0YSiwY82ygx-29" target="xQI_YbbWB0YSiwY82ygx-4">
          <mxGeometry width="50" height="50" relative="1" as="geometry">
            <mxPoint x="1196.3600000000001" y="716.74" as="sourcePoint" />
            <mxPoint x="1081.7073684210527" y="896.5" as="targetPoint" />
          </mxGeometry>
        </mxCell>
        <mxCell id="xQI_YbbWB0YSiwY82ygx-14" value="" style="endArrow=none;html=1;fontSize=12;fillColor=#0066CC;strokeColor=#0066CC;" edge="1" parent="xQI_YbbWB0YSiwY82ygx-1" source="xQI_YbbWB0YSiwY82ygx-3" target="xQI_YbbWB0YSiwY82ygx-23">
          <mxGeometry width="50" height="50" relative="1" as="geometry">
            <mxPoint x="732.76" y="896.5" as="sourcePoint" />
            <mxPoint x="723.5664516129033" y="716.5" as="targetPoint" />
          </mxGeometry>
        </mxCell>
        <mxCell id="xQI_YbbWB0YSiwY82ygx-15" value="" style="endArrow=none;html=1;fontSize=12;fillColor=#0066CC;strokeColor=#0066CC;" edge="1" parent="xQI_YbbWB0YSiwY82ygx-1" source="xQI_YbbWB0YSiwY82ygx-4" target="xQI_YbbWB0YSiwY82ygx-5">
          <mxGeometry width="50" height="50" relative="1" as="geometry">
            <mxPoint x="1087.5300000000002" y="796.5" as="sourcePoint" />
            <mxPoint x="1042.7600000000002" y="990.5" as="targetPoint" />
          </mxGeometry>
        </mxCell>
        <mxCell id="xQI_YbbWB0YSiwY82ygx-16" value="" style="endArrow=none;html=1;fontSize=12;fillColor=#0066CC;strokeColor=#0066CC;" edge="1" parent="xQI_YbbWB0YSiwY82ygx-1" source="xQI_YbbWB0YSiwY82ygx-6" target="xQI_YbbWB0YSiwY82ygx-4">
          <mxGeometry width="50" height="50" relative="1" as="geometry">
            <mxPoint x="1001.84" y="1044.9007919049714" as="sourcePoint" />
            <mxPoint x="1137.0700000000002" y="796.5" as="targetPoint" />
          </mxGeometry>
        </mxCell>
        <mxCell id="xQI_YbbWB0YSiwY82ygx-17" value="" style="endArrow=none;html=1;fontSize=12;fillColor=#0066CC;strokeColor=#0066CC;" edge="1" parent="xQI_YbbWB0YSiwY82ygx-1" source="xQI_YbbWB0YSiwY82ygx-3" target="xQI_YbbWB0YSiwY82ygx-5">
          <mxGeometry width="50" height="50" relative="1" as="geometry">
            <mxPoint x="1127.5300000000002" y="836.5" as="sourcePoint" />
            <mxPoint x="862.76" y="987.5" as="targetPoint" />
          </mxGeometry>
        </mxCell>
        <mxCell id="xQI_YbbWB0YSiwY82ygx-18" value="" style="endArrow=none;html=1;fontSize=12;fillColor=#0066CC;strokeColor=#0066CC;" edge="1" parent="xQI_YbbWB0YSiwY82ygx-1" source="xQI_YbbWB0YSiwY82ygx-3" target="xQI_YbbWB0YSiwY82ygx-6">
          <mxGeometry width="50" height="50" relative="1" as="geometry">
            <mxPoint x="1147.5300000000002" y="856.5" as="sourcePoint" />
            <mxPoint x="1167.0700000000002" y="826.5" as="targetPoint" />
          </mxGeometry>
        </mxCell>
        <mxCell id="xQI_YbbWB0YSiwY82ygx-19" value="" style="endArrow=none;html=1;fontSize=12;fillColor=#0066CC;strokeColor=#0066CC;" edge="1" parent="xQI_YbbWB0YSiwY82ygx-1" source="xQI_YbbWB0YSiwY82ygx-23" target="xQI_YbbWB0YSiwY82ygx-27">
          <mxGeometry width="50" height="50" relative="1" as="geometry">
            <mxPoint x="732.76" y="704.227272727273" as="sourcePoint" />
            <mxPoint x="807.76" y="716.5" as="targetPoint" />
          </mxGeometry>
        </mxCell>
        <mxCell id="xQI_YbbWB0YSiwY82ygx-20" value="" style="endArrow=none;html=1;fontSize=12;fillColor=#0066CC;strokeColor=#0066CC;" edge="1" parent="xQI_YbbWB0YSiwY82ygx-1" source="xQI_YbbWB0YSiwY82ygx-27" target="xQI_YbbWB0YSiwY82ygx-25">
          <mxGeometry width="50" height="50" relative="1" as="geometry">
            <mxPoint x="847.76" y="711.5" as="sourcePoint" />
            <mxPoint x="936.84" y="662.5011001100111" as="targetPoint" />
          </mxGeometry>
        </mxCell>
        <mxCell id="xQI_YbbWB0YSiwY82ygx-21" value="" style="endArrow=none;html=1;fontSize=12;fillColor=#0066CC;strokeColor=#0066CC;exitX=1;exitY=0.5;exitDx=0;exitDy=0;" edge="1" parent="xQI_YbbWB0YSiwY82ygx-1" source="xQI_YbbWB0YSiwY82ygx-26" target="xQI_YbbWB0YSiwY82ygx-29">
          <mxGeometry width="50" height="50" relative="1" as="geometry">
            <mxPoint x="1117.7600000000002" y="716.5" as="sourcePoint" />
            <mxPoint x="1182.7600000000002" y="696.5" as="targetPoint" />
          </mxGeometry>
        </mxCell>
        <mxCell id="xQI_YbbWB0YSiwY82ygx-22" value="" style="endArrow=none;html=1;fontSize=12;fillColor=#0066CC;strokeColor=#0066CC;" edge="1" parent="xQI_YbbWB0YSiwY82ygx-1" source="xQI_YbbWB0YSiwY82ygx-26" target="xQI_YbbWB0YSiwY82ygx-25">
          <mxGeometry width="50" height="50" relative="1" as="geometry">
            <mxPoint x="1075.7200000000003" y="711.46" as="sourcePoint" />
            <mxPoint x="976.84" y="661.5874831763122" as="targetPoint" />
          </mxGeometry>
        </mxCell>
        <mxCell id="xQI_YbbWB0YSiwY82ygx-23" value="" style="shape=ellipse;fillColor=#0066CC;strokeColor=#0066CC;html=1;" vertex="1" parent="xQI_YbbWB0YSiwY82ygx-1">
          <mxGeometry x="860" y="726.5" width="20" height="20" as="geometry" />
        </mxCell>
        <mxCell id="xQI_YbbWB0YSiwY82ygx-24" value="" style="shape=ellipse;fillColor=#0066CC;strokeColor=#0066CC;html=1;" vertex="1" parent="xQI_YbbWB0YSiwY82ygx-1">
          <mxGeometry x="912.24" y="696.5" width="20" height="20" as="geometry" />
        </mxCell>
        <mxCell id="xQI_YbbWB0YSiwY82ygx-25" value="" style="shape=ellipse;fillColor=#0066CC;strokeColor=#0066CC;html=1;" vertex="1" parent="xQI_YbbWB0YSiwY82ygx-1">
          <mxGeometry x="952.75" y="716.5" width="20" height="20" as="geometry" />
        </mxCell>
        <mxCell id="xQI_YbbWB0YSiwY82ygx-26" value="" style="shape=ellipse;fillColor=#0066CC;strokeColor=#0066CC;html=1;" vertex="1" parent="xQI_YbbWB0YSiwY82ygx-1">
          <mxGeometry x="1002.2400000000001" y="736.5" width="20" height="20" as="geometry" />
        </mxCell>
        <mxCell id="xQI_YbbWB0YSiwY82ygx-27" value="" style="shape=ellipse;fillColor=#0066CC;strokeColor=#0066CC;html=1;" vertex="1" parent="xQI_YbbWB0YSiwY82ygx-1">
          <mxGeometry x="912.24" y="736.5" width="20" height="20" as="geometry" />
        </mxCell>
        <mxCell id="xQI_YbbWB0YSiwY82ygx-28" value="" style="shape=ellipse;fillColor=#0066CC;strokeColor=#0066CC;html=1;" vertex="1" parent="xQI_YbbWB0YSiwY82ygx-1">
          <mxGeometry x="1002.2400000000001" y="695.5" width="20" height="20" as="geometry" />
        </mxCell>
        <mxCell id="xQI_YbbWB0YSiwY82ygx-29" value="" style="shape=ellipse;fillColor=#0066CC;strokeColor=#0066CC;html=1;" vertex="1" parent="xQI_YbbWB0YSiwY82ygx-1">
          <mxGeometry x="1047.75" y="726.5" width="20" height="20" as="geometry" />
        </mxCell>
      </root>
    </mxGraphModel>
  </diagram>
</mxfile>
